<?xml version="1.0" encoding="UTF-8"?>
<svg id="Capa_1" xmlns="http://www.w3.org/2000/svg" version="1.1" viewBox="0 0 452 452">
  <!-- Generator: Adobe Illustrator 29.0.0, SVG Export Plug-In . SVG Version: 2.1.0 Build 186)  -->
  <defs>
    <style>
      .st0 {
        fill: #fff;
      }
    </style>
  </defs>
  <g>
    <path d="M289.8,154.3l48-43.5-1.4-32.9,13.9-7.2c.9,0,7.7,6,8.8,7.1,98.8,90.5,81.9,250.5-33.5,318.1-116.1,68.1-265.5,1.9-293.8-128.7C-.4,118.1,140.6-11.2,286.2,35.7c1.7.6,11.8,3.8,12.1,4.7l-2.1,32.7,10.7,20.3-17.2,61h0ZM267.6,175.6c-35.2-30-89.3-14.6-103.4,29.1-16.9,52.5,35.9,100.9,86.7,79.3,43.7-18.6,53-77.5,16.8-108.5h-.1Z"/>
    <polygon points="348.8 51.8 314.8 63.8 320 36.7 348.8 51.8"/>
  </g>
  <circle cx="226" cy="226" r="41"/>
  <path class="st0" d="M267.6,175.6c-35.2-30-89.3-14.6-103.4,29.1-16.9,52.5,35.9,100.9,86.7,79.3,43.7-18.6,53-77.5,16.8-108.5h-.1ZM225.5,237c-6.9,0-12.5-5.6-12.5-12.5s5.6-12.5,12.5-12.5,12.5,5.6,12.5,12.5-5.6,12.5-12.5,12.5Z"/>
</svg>