<?xml version="1.0" encoding="UTF-8"?>
<svg id="Capa_1" xmlns="http://www.w3.org/2000/svg" version="1.1" xmlns:xlink="http://www.w3.org/1999/xlink" viewBox="0 0 1010 904">
  <!-- Generator: Adobe Illustrator 29.0.0, SVG Export Plug-In . SVG Version: 2.1.0 Build 186)  -->
  <defs>
    <style>
      .st0, .st1, .st2, .st3, .st4, .st5 {
        isolation: isolate;
      }

      .st0, .st6, .st3, .st4, .st7 {
        fill: #fc757f;
      }

      .st0, .st5 {
        opacity: .3;
      }

      .st8, .st9, .st2 {
        fill: #392d46;
      }

      .st10 {
        fill: #715b88;
      }

      .st1 {
        opacity: .3;
      }

      .st1, .st11, .st12, .st5 {
        fill: #fdd4d4;
      }

      .st13 {
        fill: #524164;
      }

      .st14 {
        fill: #fff;
      }

      .st9, .st6, .st2, .st11, .st15 {
        display: none;
      }

      .st16 {
        fill: none;
      }

      .st17 {
        fill: #67527d;
      }

      .st2 {
        opacity: .3;
      }

      .st3 {
        opacity: .3;
      }

      .st18 {
        fill: #7f6698;
      }

      .st4 {
        opacity: .4;
      }

      .st19 {
        fill: #9f81c1;
      }

      .st20 {
        clip-path: url(#clippath);
      }
    </style>
    <clipPath id="clippath">
      <path class="st16" d="M725.1,184.6l-56.2-9.8-135.1-55.4-124.5,4.1-155.8,174.3-27.9,240.3,89.6,69.6c109.3,104.2,282.4,102.6,389.8-4.8,28.3-17.5,36.5-54.7,90.4-68,60.9-15.1,160-10.5,163.9-42,6.7-54.1-78.6-159.6-103.5-209.4l-28.4-77.6-102.2-21.3h0Z"/>
    </clipPath>
  </defs>
  <rect class="st14" y="-2" width="1009.8" height="906.5"/>
  <g>
    <g>
      <rect class="st9" x="-910.2" y="-175.5" width="362.6" height="175.2"/>
      <rect class="st6" x="-910.2" y="-.3" width="78.3" height="429.8"/>
      <rect class="st11" x="-910.2" y="263" width="31" height="270.5"/>
    </g>
    <g class="st15">
      <g>
        <rect class="st3" x="163.9" y="55.1" width="86" height="86"/>
        <path class="st5" d="M268.9,160.1h-89.2v-89.2h89.2v89.2ZM182.8,157h82.8v-82.8h-82.9v82.8h0Z"/>
      </g>
      <g>
        <rect class="st4" x="782" y="637.6" width="86" height="86"/>
        <path class="st12" d="M763,618.6h89.2v89.2h-89.2v-89.2h0ZM849.1,621.8h-82.8v82.8h82.8v-82.8Z"/>
      </g>
    </g>
    <g>
      <rect class="st2" x="621.3" y="767.2" width="388.5" height="137.3"/>
      <rect class="st11" x="465.3" y="834.2" width="379.6" height="70.3"/>
      <rect class="st7" x="909.4" y="613.5" width="100.4" height="289.5"/>
      <rect class="st12" x="972.3" y="263" width="37.5" height="427.3"/>
      <rect class="st6" x="233.1" y="869.3" width="338.2" height="35.1"/>
    </g>
    <g class="st15">
      <rect class="st0" x="730.5" y="55.1" width="210.6" height="33.1"/>
      <rect class="st1" x="674.1" y="88.2" width="210.6" height="33.1"/>
    </g>
    <g class="st15">
      <path class="st12" d="M186.3,332.1c-107.4,107.4-109,280.5-4.8,389.8l394.6-394.6c-109.3-104.2-282.4-102.6-389.8,4.8h0Z"/>
      <path class="st7" d="M704.9,602.9c107.4-107.4,109-280.5,4.8-389.8l-394.6,394.6c109.3,104.2,282.4,102.6,389.8-4.8Z"/>
      <g class="st20">
        <g>
          <g>
            <g>
              <path class="st14" d="M655.6,264c-31-13.2-61.7-27.3-93.3-39.1-34.2-12.8-69-17.3-102.9-1.6-53,24.6-93.2,87.2-158.8,74.7-3.1-.6-1.8-5.3,1.3-4.7,68.2,13,112-60.2,170.5-80.5,28.5-9.9,59.2-3.6,86.9,5.9,33.2,11.4,65.3,26.9,97.5,40.6,2.9,1.2,1.6,6-1.3,4.7h0Z"/>
              <path class="st14" d="M646.8,299.3c-61.2-15.9-116.4-70.3-181.7-37.1-46.9,23.9-82,79.9-140.8,73.5-3.1-.3-3.1-5.3,0-4.9,62.5,6.8,100.1-59.2,153.4-79.5,60-22.9,115.5,29.1,170.5,43.3,3.1.8,1.8,5.5-1.3,4.7h0Z"/>
            </g>
            <g>
              <path class="st18" d="M338.7,293.7l-2.5.7,11,39.6c-2.2,0-5,1.2-7.5,3.4-3.8,3.4-5.4,7.8-3.5,9.8,1.8,2,6.4,1,10.2-2.4,3.3-2.9,4.9-6.6,4.1-8.8h0l-11.8-42.3h0Z"/>
              <path class="st18" d="M580.4,207.4l-2.5.7,11,39.6c-2.2,0-5,1.2-7.5,3.4-3.8,3.4-5.4,7.8-3.5,9.8,1.8,2,6.4,1,10.2-2.4,3.3-2.9,4.9-6.6,4.1-8.8h0l-11.8-42.3h0Z"/>
              <path class="st18" d="M407.5,284.2c-2-5.1-7.9-8.5-13.3-8.5l-2.5.7,11,39.6c-2.2,0-5,1.2-7.5,3.4-3.8,3.4-5.4,7.8-3.5,9.8,1.8,2,6.4,1,10.2-2.4,3.3-2.9,4.9-6.6,4.1-8.8h0l-10.9-38.9c3.9.5,7.6,3,9.5,6.5,2.1,3.9,1.7,9.9-.6,13.6,4-3.7,5.5-9.9,3.5-15h0Z"/>
              <path class="st18" d="M369.8,278c-2-5.1-7.9-8.5-13.3-8.5l-2.5.7,11,39.6c-2.2,0-5,1.2-7.5,3.4-3.8,3.4-5.4,7.8-3.5,9.8,1.8,2,6.4,1,10.2-2.4,3.3-2.9,4.9-6.6,4.1-8.8h0l-10.9-38.9c3.9.5,7.6,3,9.5,6.5,2.1,3.9,1.7,9.9-.6,13.6,4-3.7,5.5-9.9,3.5-15h0Z"/>
              <path class="st18" d="M610.6,252.6l1.4,4.9,1.1,3.8.7,2.7,7.9,28.2c-2.2,0-5,1.2-7.5,3.4-3.8,3.4-5.4,7.8-3.5,9.8,1.8,2.1,6.4,1,10.2-2.4,3.3-2.9,4.9-6.6,4.1-8.8h0l-8.9-31.9,18.8-14.7,8.2,29.4c-2.2,0-5,1.2-7.5,3.4-3.8,3.4-5.4,7.8-3.5,9.8,1.8,2,6.4,1,10.2-2.4,3.3-2.9,4.9-6.6,4.1-8.8h0l-9.2-33.1-.6-2.2-1.2-4.2-.8-2.8-.5-1.7-23.2,17.7h0ZM634.1,245.3l-18.9,14.3-1.1-3.8,18.8-14.7,1.2,4.2h0Z"/>
            </g>
          </g>
          <g>
            <g>
              <g>
                <path class="st17" d="M458,349l-43.5-5.1c-22.7-2.6-45.2,6.4-59.7,23.9l-52.9,63.8,48.8,38.9,14.8-14.8-24,168.9h177.3l8.5-52.8c3.3-20.3,9.1-40.1,17.4-59l24.2-55,12,41,53-16.7-30.4-80c-8.2-21.5-27.2-37-49.9-40.6l-39.9-6.4-55.8-6.1h0Z"/>
                <polygon class="st13" points="365.4 455.7 395.1 424.6 351.7 552 365.4 455.7"/>
                <polygon class="st13" points="568.9 457.8 614.3 488.3 580.9 498.8 568.9 457.8"/>
              </g>
              <g>
                <g>
                  <g>
                    <path class="st13" d="M520.3,718.5c8.9-14.2,23.4-24.6,39.6-29l-40.9-64.9h-111.9l54.4,92.1c15.7,26.5,33.3,51.9,52.5,75.8-.7-2.3-1.3-4.5-1.8-6.8-5.3-22.5-4.1-47.5,8.1-67.2h0Z"/>
                    <path class="st17" d="M654.8,840.1l-94.8-150.6c-16.2,4.3-30.7,14.7-39.6,29-12.2,19.7-13.4,44.6-8.1,67.2.5,2.3,1.2,4.6,1.8,6.8,13.3,16.6,27.4,32.5,42.4,47.7l34.8,35.4-13.8,37.8c-8.8,24.3-14.2,49.7-16,75.5l-8.5,123.1h68.8l44-211.1c4.4-20.9.4-42.7-11-60.8h0Z"/>
                  </g>
                  <polygon class="st13" points="621 1139.6 544.6 1139.6 549.3 1112.1 625.8 1112.1 621 1139.6"/>
                  <g>
                    <path class="st14" d="M637.9,1178.3c-.2.5-.4,1-.6,1.6h51.5c-3.6-8.4-10.3-15.2-18.9-18.7l-8.1-3.3c-10.2,3.4-19.1,10.8-23.9,20.5h0Z"/>
                    <path class="st8" d="M637.9,1178.3c4.8-9.7,13.7-17.1,23.9-20.5l-44.6-18.2h-65.9l-5.1,40.3h91.2c.2-.5.4-1.1.6-1.6h0Z"/>
                    <path class="st14" d="M690.8,1186.1c-.5-2.2-1.2-4.2-2-6.2h-142.7l-1.5,11.8h147.5l-1.2-5.6h0Z"/>
                  </g>
                </g>
                <g>
                  <path class="st17" d="M475.5,952.7l-37.4,159.3h-68.8l8.1-102.3c2.1-26.4,8.7-52.3,19.5-76.6l13.9-31.2-31.9-93.8c-3.7-11-6.7-22.2-8.9-33.5l-28.7-150.1h111.9l27.9,220c4.6,36.1,2.7,72.7-5.6,108.1h0Z"/>
                  <polygon class="st13" points="436.8 1139.6 360.3 1139.6 365 1112.1 441.5 1112.1 436.8 1139.6"/>
                  <g>
                    <path class="st8" d="M418.5,1176.2c10.4-5.2,22.4-7.2,34-5.7l-13.3-7.8c-8.1-4.7-12.4-13.9-11-23.1h-58.4l-7.7,52.1h37.3c5.2-6.4,11.7-11.7,19-15.4h0Z"/>
                    <path class="st14" d="M418.5,1176.2c-7.4,3.7-13.8,9-19,15.4h74.3c-1.9-6.6-6.2-12.3-12.3-15.9l-9-5.2c-11.6-1.4-23.6.5-34,5.7h0Z"/>
                    <path class="st14" d="M473.8,1191.7h-111.6l-1.9,12.7h114.6v-5.2c0-2.6-.4-5.1-1.1-7.6h0Z"/>
                  </g>
                </g>
              </g>
              <g>
                <g>
                  <path class="st19" d="M512.5,335.2c-9.1,5.3-20.9,6.1-30.5,1.5-7.1-3.5-12.6-9.3-17.3-15.8-.5,11.5-3.4,22.9-6.7,28.1h0c8.3,24.5,41.2,28.6,55.3,7l.5-.8c-2.4-4.3-2.2-12.1-1.3-20h0Z"/>
                  <path class="st10" d="M482,336.7c9.6,4.6,21.3,3.8,30.5-1.5,1.5-12.2,5.2-24.7,5.2-24.7l-55-9.6c1.8,5.9,2.4,13,2,20,4.7,6.5,10.2,12.4,17.3,15.8h0Z"/>
                </g>
                <path class="st8" d="M570.6,207c7.8,6.6,11.9,17.1,10.7,27.2s-7.5,19.5-16.7,24c5.4,8.6,5,20.6-1.1,28.8s-17.2,11-27,8.3c-18.4,13.8-45.2,14.1-64.5,1.5-9.8,5-20.7,8.3-31.6,7.5s-21.8-6.2-27.6-15.5c-5.8-9.3-5.5-23.7,2.2-31.5-7.8-5.5-12.1-15.6-10.6-25.1,1.5-9.5,9.7-18.6,18.8-21.4-5.6-6.9-7.1-16.8-3.9-25,3.2-8.2,11.5-14.7,20.2-15.9.7-10.4,7.7-20.2,17.4-24.1,9.7-3.9,21.5-1.8,29.2,5.1,3.4-11.6,15.7-20.5,27.8-20.7s23.8,8.1,27.6,19.6c4.1-2.6,11.1-1.9,15.8-.6,4.7,1.3,8.7,4.7,10.8,9.1,3.1,6.5,1.9,14.3-.7,21.1,1.8-.6,3.8.1,5.5,1.1s2.9,2.6,3.8,4.3c3.6,6.8-.2,17.3-6.1,22.1h0Z"/>
                <path class="st10" d="M553.3,248.7c11.2,0,20.2,9.1,20.2,20.2s-9.1,20.2-20.2,20.2h-13.2v-40.5h13.2Z"/>
                <ellipse class="st19" cx="501.4" cy="248.7" rx="59.7" ry="73.5"/>
                <g>
                  <path class="st8" d="M505.9,236.7c-2.6-5-8.1-8.3-13.7-8.3-5.6,0-11,3.5-13.5,8.6,8.5-1.2,18.7-1,27.2-.3Z"/>
                  <path class="st8" d="M553.6,242.3c-1.1-4.6-5.1-8.3-9.7-9.1-4.6-.8-9.6,1.5-12.1,5.5,6.9,1,15,2.6,21.8,3.6Z"/>
                  <path class="st8" d="M494.4,259.1h0c-2.5,0-4.5-2.2-4.4-4.7l.2-5.5c0-2.5,2.2-4.5,4.7-4.4h0c2.5,0,4.5,2.2,4.4,4.7l-.2,5.5c0,2.5-2.2,4.5-4.7,4.4Z"/>
                  <path class="st8" d="M543.3,249.4h.3c2.1.5,3.5,2.5,3.1,4.6l-1.1,5.8c-.4,2.1-2.4,3.5-4.5,3.1h-.3c-2.1-.5-3.5-2.5-3.1-4.6l1.1-5.8c.4-2.1,2.4-3.5,4.5-3.1h0Z"/>
                  <path class="st10" d="M526.1,274.3c-5.8,0-11.5-.1-17.3-.2,1.2,3.5,4.4,6.8,8,7.2s8.3-3.4,9.3-7Z"/>
                  <path class="st14" d="M534.7,291.1c-14.4.9-28.9-.1-43-3,2.4,9.2,10.8,16.5,20.3,17.4,9.5.8,18.7-5.8,22.7-14.4h0Z"/>
                </g>
                <path class="st8" d="M561.8,233.6c-6.2-1.6-11.4-6.4-14.9-11.8-6.1,2.4-13.2,1-18.9-2.1-5.8-3.1-10.5-8.3-15.1-13-7.3,9.2-20.7,14.1-32.2,12,1.2,5.5.4,11.4-2.4,16.4-2.8,4.9-7.6,9.1-12.9,10.9,2.1,12.9-2.8,26.7-12.5,35.3-4.7-.4-9.3-4-11.6-8.1s-3-9-3.4-13.7c-1.5-17.8.9-36.1,8.5-52.1,7.7-16.1,20.9-29.8,37.4-36.5s36.3-5.9,51.4,3.6c9.6,6,17,15.2,21.7,25.5s4.7,22.4,5,33.8h0Z"/>
                <path class="st19" d="M444.8,248.7c-11.5,0-20.8,9.7-20.2,21.3.6,11,10.4,19.2,21.4,19.2h12v-28.3c0-6.7-5.5-12.2-12.2-12.2h-1,0Z"/>
              </g>
            </g>
            <g>
              <polygon class="st8" points="630.3 483.2 584.2 497.7 591.2 518.1 633.8 498.1 630.3 483.2"/>
              <path class="st10" d="M647.3,556.3l-13.5-58.2-42.6,20,19.1,56.2c6.6,19.3,29.6,27.1,46.5,15.8l60.1-40.1-69.6,6.2Z"/>
            </g>
            <path class="st19" d="M709.5,515.5c-.7-3-.8-6.2-1.8-9.1s-3.4-5.7-6.5-6c-3.8-.4-7.1,3.4-7.6,7.2-.5,3.8.8,7.6,2.2,11.2,3.4-.4,10.3-2.8,13.7-3.2h0Z"/>
            <g>
              <path class="st8" d="M517.7,355.8l49,175.2h0c6.2-2.2,9.9-8.6,8.7-15.1l-27.8-155.3-29.8-4.8h0Z"/>
              <g>
                <g>
                  <path class="st8" d="M441,553.5l-30.7-7.2c-22.2-5.2-45.2,4.1-57.6,23.2l-3.4,5.3c-16.4,25.4-19.2,57.2-7.3,85l11.7,27.3c5.9,13.7,14.6,26,25.7,36h0c19.2,17.4,48.6,17,67.4-.8l14.3-13.5c17.7-16.7,41.9-24.6,66-21.7l1.7.2c21.9,2.7,43.4-7.4,55.3-26l5.4-8.3c5.7-8.8-1.7-20.2-12.1-18.6l-10.9,1.7c-14.4,2.3-28.2-6.5-32.2-20.5l-8.9-30.7c-2-6.8-1.4-14.1,1.7-20.5h0c6.9-14.5,19.2-25.7,34.2-31.4l5.5-2.1c10.1-3.8,8-18.7-2.8-19.6l-25.9-2.2c-14-1.2-27.7,5-36,16.4l-5.4,7.4c-12.7,17.4-34.6,25.5-55.5,20.5h0Z"/>
                  <path class="st14" d="M558.6,662.8c4.3-4.3,7.4-11.4,4-16.7-2.9-4.6-9.2-5.5-14.4-4.7-5.2.7-10.5,2.4-15.6,1.1-7.8-2.1-12.3-10.4-15-18.2-6.6-19.3-7.4-40.4-2.3-59.5.9-3.5,2-7.5.4-10.7-2.7-5.3-10.9-4.8-15.4-1.2-4.6,3.7-7.1,9.3-11.2,13.6-7.2,7.5-18.2,9.9-28.6,9.9-10.4,0-20.6-2-30.9-1.5-10.3.5-21.1,3.9-27.4,12.3-5.5,7.5-6.4,17.6-4.8,26.8,1.7,9.3,5.8,17.9,9.4,26.6,3.7,8.8,7,18,7.2,27.7,0,5.9-1,11.7-.9,17.6.1,5.9,1.9,12.2,6.4,15.8,6.1,5,15.2,3,21.6-1.3,6.5-4.3,11.5-10.7,17.9-15.2,14.3-10.1,33-9.4,50.5-9.1,17.5.3,36.8-.9,49.2-13.4h0Z"/>
                </g>
                <g>
                  <path class="st8" d="M827.5,475.5l8.7-8.9c6.4-6.5,15.6-9.4,24.5-7.8l68.8,12.9c11.2,2.1,18.8,12.4,17.5,23.7h0c-.9,7.6-7.1,13.4-14.8,13.7h-3c-8.4.4-15.5-6-16-14.4h0c-.3-5.1-6.2-7.9-10.3-4.9l-23.6,17.1c-6.7,4.9-15.2,6.3-23.1,3.8l-20.9-6.5-7.8-29h0Z"/>
                  <g>
                    <polygon class="st8" points="501.4 585.7 513.8 628.4 828.7 507 820.8 477.7 501.4 585.7"/>
                    <polygon class="st19" points="827.5 475.5 820.8 477.7 828.7 507 835.2 504.5 827.5 475.5"/>
                  </g>
                </g>
              </g>
            </g>
            <path class="st19" d="M673,552.9l3.9,10.7c2.3,6.3,9.3,9.6,15.6,7.2l37-13.8c6.1-2.3,9.3-8.9,7.3-15l-7.2-22.6c-1.6-5-7-7.8-12-6.2h0c-3.5,1.1-6.1,4.2-6.6,7.8l-.4,3-27.5,8.7c-8.5,2.7-13,11.9-10,20.3h0Z"/>
            <g>
              <polygon class="st13" points="829.2 254.6 725.3 376.3 787.5 367.7 732 461.2 851.6 337.4 782.8 342.5 829.2 254.6"/>
              <polygon class="st13" points="673.4 277.2 653.8 364.8 680.4 347.9 675.8 424.2 701.8 314.9 670.3 335.2 673.4 277.2"/>
              <polygon class="st13" points="909.1 707.8 795.3 628.4 849.5 622 782.3 555.6 909.9 633.4 851 644.2 909.1 707.8"/>
              <polygon class="st13" points="773.4 722.9 737.7 653.6 763.8 662 743.2 599 789 685 758.1 674.9 773.4 722.9"/>
            </g>
            <g>
              <path class="st19" d="M515.4,623.1c0-3.2-2.8-5.8-6-5.5l-12.8,1.3,1.6-.9c4.1-2.4,6.3-7.1,5.5-11.8l-14.1,2.1-12.2-9.1c-5.8-4.4-13.6-5.2-20.2-2.1l-23.9,11.2-122.2-101.7,18.3-21.7-44.5-27.9-19.7,21.3c-18,19.5-13.5,50.7,9.4,64.2l148.2,87.7,25.5,22.2c2.4,2,5.4,3.2,8.5,3.2h47c4.1,0,7.7-2.8,8.8-6.8l1.6-6c.7-2.7-1.2-5.4-4-5.6l-27.2-2,28.3-7c2.4-.6,4.2-2.8,4.2-5.3h0Z"/>
              <polygon class="st10" points="345 466.1 305.5 434.6 284.7 457 329.2 484.9 345 466.1"/>
            </g>
          </g>
        </g>
      </g>
    </g>
    <g class="st15">
      <path class="st7" d="M14.4,504.4c-2,0-3.6,1.6-3.6,3.6s1.6,3.6,3.6,3.6,3.6-1.6,3.6-3.6-1.6-3.6-3.6-3.6Z"/>
      <path class="st7" d="M39.6,504.4c-2,0-3.6,1.6-3.6,3.6s1.6,3.6,3.6,3.6,3.6-1.6,3.6-3.6-1.6-3.6-3.6-3.6Z"/>
      <path class="st7" d="M64.9,504.4c-2,0-3.6,1.6-3.6,3.6s1.6,3.6,3.6,3.6,3.6-1.6,3.6-3.6-1.6-3.6-3.6-3.6Z"/>
      <path class="st7" d="M90.2,504.4c-2,0-3.6,1.6-3.6,3.6s1.6,3.6,3.6,3.6,3.6-1.6,3.6-3.6-1.6-3.6-3.6-3.6Z"/>
      <path class="st7" d="M115.4,504.4c-2,0-3.6,1.6-3.6,3.6s1.6,3.6,3.6,3.6,3.6-1.6,3.6-3.6-1.6-3.6-3.6-3.6Z"/>
      <path class="st7" d="M140.7,504.4c-2,0-3.6,1.6-3.6,3.6s1.6,3.6,3.6,3.6,3.6-1.6,3.6-3.6-1.6-3.6-3.6-3.6Z"/>
      <path class="st7" d="M165.9,504.4c-2,0-3.6,1.6-3.6,3.6s1.6,3.6,3.6,3.6,3.6-1.6,3.6-3.6-1.6-3.6-3.6-3.6Z"/>
      <path class="st7" d="M191.2,504.4c-2,0-3.6,1.6-3.6,3.6s1.6,3.6,3.6,3.6,3.6-1.6,3.6-3.6-1.6-3.6-3.6-3.6Z"/>
      <path class="st7" d="M216.5,504.4c-2,0-3.6,1.6-3.6,3.6s1.6,3.6,3.6,3.6,3.6-1.6,3.6-3.6-1.6-3.6-3.6-3.6Z"/>
      <path class="st7" d="M241.7,511.5c2,0,3.6-1.6,3.6-3.6s-1.6-3.6-3.6-3.6-3.6,1.6-3.6,3.6,1.6,3.6,3.6,3.6Z"/>
      <path class="st7" d="M14.4,527.7c-2,0-3.6,1.6-3.6,3.6s1.6,3.6,3.6,3.6,3.6-1.6,3.6-3.6-1.6-3.6-3.6-3.6Z"/>
      <path class="st7" d="M39.6,527.7c-2,0-3.6,1.6-3.6,3.6s1.6,3.6,3.6,3.6,3.6-1.6,3.6-3.6-1.6-3.6-3.6-3.6Z"/>
      <path class="st7" d="M64.9,527.7c-2,0-3.6,1.6-3.6,3.6s1.6,3.6,3.6,3.6,3.6-1.6,3.6-3.6-1.6-3.6-3.6-3.6Z"/>
      <path class="st7" d="M90.2,527.7c-2,0-3.6,1.6-3.6,3.6s1.6,3.6,3.6,3.6,3.6-1.6,3.6-3.6-1.6-3.6-3.6-3.6Z"/>
      <path class="st7" d="M115.4,527.7c-2,0-3.6,1.6-3.6,3.6s1.6,3.6,3.6,3.6,3.6-1.6,3.6-3.6-1.6-3.6-3.6-3.6Z"/>
      <path class="st7" d="M140.7,527.7c-2,0-3.6,1.6-3.6,3.6s1.6,3.6,3.6,3.6,3.6-1.6,3.6-3.6-1.6-3.6-3.6-3.6Z"/>
      <path class="st7" d="M165.9,527.7c-2,0-3.6,1.6-3.6,3.6s1.6,3.6,3.6,3.6,3.6-1.6,3.6-3.6-1.6-3.6-3.6-3.6Z"/>
      <path class="st7" d="M191.2,527.7c-2,0-3.6,1.6-3.6,3.6s1.6,3.6,3.6,3.6,3.6-1.6,3.6-3.6-1.6-3.6-3.6-3.6Z"/>
      <path class="st7" d="M216.5,527.7c-2,0-3.6,1.6-3.6,3.6s1.6,3.6,3.6,3.6,3.6-1.6,3.6-3.6-1.6-3.6-3.6-3.6Z"/>
      <path class="st7" d="M241.7,527.7c-2,0-3.6,1.6-3.6,3.6s1.6,3.6,3.6,3.6,3.6-1.6,3.6-3.6-1.6-3.6-3.6-3.6Z"/>
      <path class="st7" d="M14.4,550.9c-2,0-3.6,1.6-3.6,3.6s1.6,3.6,3.6,3.6,3.6-1.6,3.6-3.6-1.6-3.6-3.6-3.6Z"/>
      <path class="st7" d="M39.6,550.9c-2,0-3.6,1.6-3.6,3.6s1.6,3.6,3.6,3.6,3.6-1.6,3.6-3.6-1.6-3.6-3.6-3.6Z"/>
      <path class="st7" d="M64.9,550.9c-2,0-3.6,1.6-3.6,3.6s1.6,3.6,3.6,3.6,3.6-1.6,3.6-3.6-1.6-3.6-3.6-3.6Z"/>
      <path class="st7" d="M90.2,550.9c-2,0-3.6,1.6-3.6,3.6s1.6,3.6,3.6,3.6,3.6-1.6,3.6-3.6-1.6-3.6-3.6-3.6Z"/>
      <path class="st7" d="M115.4,550.9c-2,0-3.6,1.6-3.6,3.6s1.6,3.6,3.6,3.6,3.6-1.6,3.6-3.6-1.6-3.6-3.6-3.6Z"/>
      <path class="st7" d="M140.7,550.9c-2,0-3.6,1.6-3.6,3.6s1.6,3.6,3.6,3.6,3.6-1.6,3.6-3.6-1.6-3.6-3.6-3.6Z"/>
      <path class="st7" d="M165.9,550.9c-2,0-3.6,1.6-3.6,3.6s1.6,3.6,3.6,3.6,3.6-1.6,3.6-3.6-1.6-3.6-3.6-3.6Z"/>
      <path class="st7" d="M191.2,550.9c-2,0-3.6,1.6-3.6,3.6s1.6,3.6,3.6,3.6,3.6-1.6,3.6-3.6-1.6-3.6-3.6-3.6Z"/>
      <path class="st7" d="M216.5,550.9c-2,0-3.6,1.6-3.6,3.6s1.6,3.6,3.6,3.6,3.6-1.6,3.6-3.6-1.6-3.6-3.6-3.6Z"/>
      <path class="st7" d="M241.7,550.9c-2,0-3.6,1.6-3.6,3.6s1.6,3.6,3.6,3.6,3.6-1.6,3.6-3.6-1.6-3.6-3.6-3.6Z"/>
      <path class="st7" d="M14.4,574.2c-2,0-3.6,1.6-3.6,3.6s1.6,3.6,3.6,3.6,3.6-1.6,3.6-3.6-1.6-3.6-3.6-3.6Z"/>
      <circle class="st7" cx="39.6" cy="577.8" r="3.6"/>
      <path class="st7" d="M64.9,574.2c-2,0-3.6,1.6-3.6,3.6s1.6,3.6,3.6,3.6,3.6-1.6,3.6-3.6-1.6-3.6-3.6-3.6Z"/>
      <path class="st7" d="M90.2,574.2c-2,0-3.6,1.6-3.6,3.6s1.6,3.6,3.6,3.6,3.6-1.6,3.6-3.6-1.6-3.6-3.6-3.6Z"/>
      <circle class="st7" cx="115.4" cy="577.8" r="3.6"/>
      <path class="st7" d="M140.7,574.2c-2,0-3.6,1.6-3.6,3.6s1.6,3.6,3.6,3.6,3.6-1.6,3.6-3.6-1.6-3.6-3.6-3.6Z"/>
      <path class="st7" d="M165.9,574.2c-2,0-3.6,1.6-3.6,3.6s1.6,3.6,3.6,3.6,3.6-1.6,3.6-3.6-1.6-3.6-3.6-3.6Z"/>
      <circle class="st7" cx="191.2" cy="577.8" r="3.6"/>
      <path class="st7" d="M216.5,574.2c-2,0-3.6,1.6-3.6,3.6s1.6,3.6,3.6,3.6,3.6-1.6,3.6-3.6-1.6-3.6-3.6-3.6Z"/>
      <path class="st7" d="M241.7,574.2c-2,0-3.6,1.6-3.6,3.6s1.6,3.6,3.6,3.6,3.6-1.6,3.6-3.6-1.6-3.6-3.6-3.6Z"/>
      <path class="st7" d="M14.4,597.5c-2,0-3.6,1.6-3.6,3.6s1.6,3.6,3.6,3.6,3.6-1.6,3.6-3.6-1.6-3.6-3.6-3.6Z"/>
      <path class="st7" d="M39.6,597.5c-2,0-3.6,1.6-3.6,3.6s1.6,3.6,3.6,3.6,3.6-1.6,3.6-3.6-1.6-3.6-3.6-3.6Z"/>
      <path class="st7" d="M64.9,597.5c-2,0-3.6,1.6-3.6,3.6s1.6,3.6,3.6,3.6,3.6-1.6,3.6-3.6-1.6-3.6-3.6-3.6Z"/>
      <path class="st7" d="M90.2,597.5c-2,0-3.6,1.6-3.6,3.6s1.6,3.6,3.6,3.6,3.6-1.6,3.6-3.6-1.6-3.6-3.6-3.6Z"/>
      <path class="st7" d="M115.4,597.5c-2,0-3.6,1.6-3.6,3.6s1.6,3.6,3.6,3.6,3.6-1.6,3.6-3.6-1.6-3.6-3.6-3.6Z"/>
      <path class="st7" d="M140.7,597.5c-2,0-3.6,1.6-3.6,3.6s1.6,3.6,3.6,3.6,3.6-1.6,3.6-3.6-1.6-3.6-3.6-3.6Z"/>
      <path class="st7" d="M165.9,597.5c-2,0-3.6,1.6-3.6,3.6s1.6,3.6,3.6,3.6,3.6-1.6,3.6-3.6-1.6-3.6-3.6-3.6Z"/>
      <path class="st7" d="M191.2,597.5c-2,0-3.6,1.6-3.6,3.6s1.6,3.6,3.6,3.6,3.6-1.6,3.6-3.6-1.6-3.6-3.6-3.6Z"/>
      <path class="st7" d="M216.5,597.5c-2,0-3.6,1.6-3.6,3.6s1.6,3.6,3.6,3.6,3.6-1.6,3.6-3.6-1.6-3.6-3.6-3.6Z"/>
      <path class="st7" d="M241.7,597.5c-2,0-3.6,1.6-3.6,3.6s1.6,3.6,3.6,3.6,3.6-1.6,3.6-3.6-1.6-3.6-3.6-3.6Z"/>
      <path class="st7" d="M14.4,620.8c-2,0-3.6,1.6-3.6,3.6s1.6,3.6,3.6,3.6,3.6-1.6,3.6-3.6-1.6-3.6-3.6-3.6Z"/>
      <circle class="st7" cx="39.6" cy="624.4" r="3.6"/>
      <path class="st7" d="M64.9,620.8c-2,0-3.6,1.6-3.6,3.6s1.6,3.6,3.6,3.6,3.6-1.6,3.6-3.6-1.6-3.6-3.6-3.6Z"/>
      <path class="st7" d="M90.2,620.8c-2,0-3.6,1.6-3.6,3.6s1.6,3.6,3.6,3.6,3.6-1.6,3.6-3.6-1.6-3.6-3.6-3.6Z"/>
      <circle class="st7" cx="115.4" cy="624.3" r="3.6"/>
      <path class="st7" d="M140.7,620.8c-2,0-3.6,1.6-3.6,3.6s1.6,3.6,3.6,3.6,3.6-1.6,3.6-3.6-1.6-3.6-3.6-3.6Z"/>
      <path class="st7" d="M165.9,620.8c-2,0-3.6,1.6-3.6,3.6s1.6,3.6,3.6,3.6,3.6-1.6,3.6-3.6-1.6-3.6-3.6-3.6Z"/>
      <circle class="st7" cx="191.2" cy="624.3" r="3.6"/>
      <path class="st7" d="M216.5,620.8c-2,0-3.6,1.6-3.6,3.6s1.6,3.6,3.6,3.6,3.6-1.6,3.6-3.6-1.6-3.6-3.6-3.6Z"/>
      <path class="st7" d="M241.7,620.8c-2,0-3.6,1.6-3.6,3.6s1.6,3.6,3.6,3.6,3.6-1.6,3.6-3.6-1.6-3.6-3.6-3.6Z"/>
      <path class="st7" d="M14.4,644c-2,0-3.6,1.6-3.6,3.6s1.6,3.6,3.6,3.6,3.6-1.6,3.6-3.6-1.6-3.6-3.6-3.6Z"/>
      <circle class="st7" cx="39.6" cy="647.6" r="3.6" transform="translate(-102.5 14.5) rotate(-9.2)"/>
      <path class="st7" d="M64.9,644c-2,0-3.6,1.6-3.6,3.6s1.6,3.6,3.6,3.6,3.6-1.6,3.6-3.6-1.6-3.6-3.6-3.6Z"/>
      <path class="st7" d="M90.2,644c-2,0-3.6,1.6-3.6,3.6s1.6,3.6,3.6,3.6,3.6-1.6,3.6-3.6-1.6-3.6-3.6-3.6Z"/>
      <circle class="st7" cx="115.4" cy="647.6" r="3.6"/>
      <path class="st7" d="M140.7,644c-2,0-3.6,1.6-3.6,3.6s1.6,3.6,3.6,3.6,3.6-1.6,3.6-3.6-1.6-3.6-3.6-3.6Z"/>
      <path class="st7" d="M165.9,644c-2,0-3.6,1.6-3.6,3.6s1.6,3.6,3.6,3.6,3.6-1.6,3.6-3.6-1.6-3.6-3.6-3.6Z"/>
      <circle class="st7" cx="191.2" cy="647.6" r="3.6"/>
      <path class="st7" d="M216.5,644c-2,0-3.6,1.6-3.6,3.6s1.6,3.6,3.6,3.6,3.6-1.6,3.6-3.6-1.6-3.6-3.6-3.6Z"/>
      <path class="st7" d="M241.7,644c-2,0-3.6,1.6-3.6,3.6s1.6,3.6,3.6,3.6,3.6-1.6,3.6-3.6-1.6-3.6-3.6-3.6Z"/>
      <path class="st7" d="M14.4,667.3c-2,0-3.6,1.6-3.6,3.6s1.6,3.6,3.6,3.6,3.6-1.6,3.6-3.6-1.6-3.6-3.6-3.6Z"/>
      <circle class="st7" cx="39.6" cy="670.9" r="3.6" transform="translate(-106.2 14.8) rotate(-9.1)"/>
      <path class="st7" d="M64.9,667.3c-2,0-3.6,1.6-3.6,3.6s1.6,3.6,3.6,3.6,3.6-1.6,3.6-3.6-1.6-3.6-3.6-3.6Z"/>
      <path class="st7" d="M90.2,667.3c-2,0-3.6,1.6-3.6,3.6s1.6,3.6,3.6,3.6,3.6-1.6,3.6-3.6-1.6-3.6-3.6-3.6Z"/>
      <circle class="st7" cx="115.4" cy="670.9" r="3.6"/>
      <path class="st7" d="M140.7,667.3c-2,0-3.6,1.6-3.6,3.6s1.6,3.6,3.6,3.6,3.6-1.6,3.6-3.6-1.6-3.6-3.6-3.6Z"/>
      <path class="st7" d="M165.9,667.3c-2,0-3.6,1.6-3.6,3.6s1.6,3.6,3.6,3.6,3.6-1.6,3.6-3.6-1.6-3.6-3.6-3.6Z"/>
      <circle class="st7" cx="191.2" cy="670.9" r="3.6"/>
      <path class="st7" d="M216.5,667.3c-2,0-3.6,1.6-3.6,3.6s1.6,3.6,3.6,3.6,3.6-1.6,3.6-3.6-1.6-3.6-3.6-3.6Z"/>
      <path class="st7" d="M241.7,667.3c-2,0-3.6,1.6-3.6,3.6s1.6,3.6,3.6,3.6,3.6-1.6,3.6-3.6-1.6-3.6-3.6-3.6Z"/>
      <path class="st7" d="M14.4,690.6c-2,0-3.6,1.6-3.6,3.6s1.6,3.6,3.6,3.6,3.6-1.6,3.6-3.6-1.6-3.6-3.6-3.6Z"/>
      <circle class="st7" cx="39.6" cy="694.2" r="3.6"/>
      <path class="st7" d="M64.9,690.6c-2,0-3.6,1.6-3.6,3.6s1.6,3.6,3.6,3.6,3.6-1.6,3.6-3.6-1.6-3.6-3.6-3.6Z"/>
      <path class="st7" d="M90.2,690.6c-2,0-3.6,1.6-3.6,3.6s1.6,3.6,3.6,3.6,3.6-1.6,3.6-3.6-1.6-3.6-3.6-3.6Z"/>
      <circle class="st7" cx="115.4" cy="694.2" r="3.6"/>
      <path class="st7" d="M140.7,690.6c-2,0-3.6,1.6-3.6,3.6s1.6,3.6,3.6,3.6,3.6-1.6,3.6-3.6-1.6-3.6-3.6-3.6Z"/>
      <path class="st7" d="M165.9,690.6c-2,0-3.6,1.6-3.6,3.6s1.6,3.6,3.6,3.6,3.6-1.6,3.6-3.6-1.6-3.6-3.6-3.6Z"/>
      <circle class="st7" cx="191.2" cy="694.2" r="3.6"/>
      <path class="st7" d="M216.5,690.6c-2,0-3.6,1.6-3.6,3.6s1.6,3.6,3.6,3.6,3.6-1.6,3.6-3.6-1.6-3.6-3.6-3.6Z"/>
      <path class="st7" d="M241.7,690.6c-2,0-3.6,1.6-3.6,3.6s1.6,3.6,3.6,3.6,3.6-1.6,3.6-3.6-1.6-3.6-3.6-3.6Z"/>
      <path class="st7" d="M14.4,713.9c-2,0-3.6,1.6-3.6,3.6s1.6,3.6,3.6,3.6,3.6-1.6,3.6-3.6-1.6-3.6-3.6-3.6Z"/>
      <circle class="st7" cx="39.6" cy="717.5" r="3.6"/>
      <path class="st7" d="M64.9,713.9c-2,0-3.6,1.6-3.6,3.6s1.6,3.6,3.6,3.6,3.6-1.6,3.6-3.6-1.6-3.6-3.6-3.6Z"/>
      <path class="st7" d="M90.2,713.9c-2,0-3.6,1.6-3.6,3.6s1.6,3.6,3.6,3.6,3.6-1.6,3.6-3.6-1.6-3.6-3.6-3.6Z"/>
      <circle class="st7" cx="115.4" cy="717.5" r="3.6"/>
      <path class="st7" d="M140.7,713.9c-2,0-3.6,1.6-3.6,3.6s1.6,3.6,3.6,3.6,3.6-1.6,3.6-3.6-1.6-3.6-3.6-3.6Z"/>
      <path class="st7" d="M165.9,713.9c-2,0-3.6,1.6-3.6,3.6s1.6,3.6,3.6,3.6,3.6-1.6,3.6-3.6-1.6-3.6-3.6-3.6Z"/>
      <circle class="st7" cx="191.2" cy="717.5" r="3.6"/>
      <path class="st7" d="M216.5,713.9c-2,0-3.6,1.6-3.6,3.6s1.6,3.6,3.6,3.6,3.6-1.6,3.6-3.6-1.6-3.6-3.6-3.6Z"/>
      <path class="st7" d="M241.7,713.9c-2,0-3.6,1.6-3.6,3.6s1.6,3.6,3.6,3.6,3.6-1.6,3.6-3.6-1.6-3.6-3.6-3.6Z"/>
      <path class="st7" d="M14.4,737.2c-2,0-3.6,1.6-3.6,3.6s1.6,3.6,3.6,3.6,3.6-1.6,3.6-3.6-1.6-3.6-3.6-3.6Z"/>
      <path class="st7" d="M39.6,737.2c-2,0-3.6,1.6-3.6,3.6s1.6,3.6,3.6,3.6,3.6-1.6,3.6-3.6-1.6-3.6-3.6-3.6Z"/>
      <path class="st7" d="M64.9,737.2c-2,0-3.6,1.6-3.6,3.6s1.6,3.6,3.6,3.6,3.6-1.6,3.6-3.6-1.6-3.6-3.6-3.6Z"/>
      <path class="st7" d="M90.2,737.2c-2,0-3.6,1.6-3.6,3.6s1.6,3.6,3.6,3.6,3.6-1.6,3.6-3.6-1.6-3.6-3.6-3.6Z"/>
      <path class="st7" d="M115.4,737.2c-2,0-3.6,1.6-3.6,3.6s1.6,3.6,3.6,3.6,3.6-1.6,3.6-3.6-1.6-3.6-3.6-3.6Z"/>
      <path class="st7" d="M140.7,737.2c-2,0-3.6,1.6-3.6,3.6s1.6,3.6,3.6,3.6,3.6-1.6,3.6-3.6-1.6-3.6-3.6-3.6Z"/>
      <path class="st7" d="M165.9,737.2c-2,0-3.6,1.6-3.6,3.6s1.6,3.6,3.6,3.6,3.6-1.6,3.6-3.6-1.6-3.6-3.6-3.6Z"/>
      <path class="st7" d="M191.2,737.2c-2,0-3.6,1.6-3.6,3.6s1.6,3.6,3.6,3.6,3.6-1.6,3.6-3.6-1.6-3.6-3.6-3.6Z"/>
      <path class="st7" d="M216.5,737.2c-2,0-3.6,1.6-3.6,3.6s1.6,3.6,3.6,3.6,3.6-1.6,3.6-3.6-1.6-3.6-3.6-3.6Z"/>
      <path class="st7" d="M241.7,737.2c-2,0-3.6,1.6-3.6,3.6s1.6,3.6,3.6,3.6,3.6-1.6,3.6-3.6-1.6-3.6-3.6-3.6Z"/>
    </g>
  </g>
</svg>