<?xml version="1.0" encoding="UTF-8"?>
<svg id="Capa_1" xmlns="http://www.w3.org/2000/svg" version="1.1" viewBox="0 0 430 430">
  <!-- Generator: Adobe Illustrator 29.0.0, SVG Export Plug-In . SVG Version: 2.1.0 Build 186)  -->
  <defs>
    <style>
      .st0 {
        fill: #fff;
      }

      .st1 {
        fill: #fc757f;
      }
    </style>
  </defs>
  <g>
    <path class="st1" d="M280.8,144.3l48-43.5-1.4-32.9,13.9-7.2c.9,0,7.7,6,8.8,7.1,98.8,90.5,81.9,250.5-33.5,318.1-116.1,68.1-265.5,1.9-293.8-128.7C-9.4,108.1,131.6-21.2,277.2,25.7c1.7.6,11.8,3.8,12.1,4.7l-2.1,32.7,10.7,20.3-17.2,61ZM258.6,165.6c-35.2-30-89.3-14.6-103.4,29.1-16.9,52.5,35.9,100.9,86.7,79.3,43.7-18.6,53-77.5,16.8-108.5Z"/>
    <polygon class="st1" points="339.8 41.8 305.8 53.8 311 26.7 339.8 41.8"/>
  </g>
  <circle cx="217" cy="216" r="41"/>
  <path class="st0" d="M258.6,165.6c-35.2-30-89.3-14.6-103.4,29.1-16.9,52.5,35.9,100.9,86.7,79.3,43.7-18.6,53-77.5,16.8-108.5ZM216.5,227c-6.9,0-12.5-5.6-12.5-12.5s5.6-12.5,12.5-12.5,12.5,5.6,12.5,12.5-5.6,12.5-12.5,12.5Z"/>
</svg>