<?xml version="1.0" encoding="UTF-8"?>
<svg id="Capa_1" xmlns="http://www.w3.org/2000/svg" version="1.1" xmlns:xlink="http://www.w3.org/1999/xlink" viewBox="0 0 1200 905">
  <!-- Generator: Adobe Illustrator 29.0.0, SVG Export Plug-In . SVG Version: 2.1.0 Build 186)  -->
  <defs>
    <style>
      .st0 {
        font-size: 22px;
      }

      .st0, .st1, .st2, .st3 {
        fill: #392d46;
      }

      .st0, .st4, .st2, .st3, .st5 {
        isolation: isolate;
      }

      .st0, .st2 {
        font-family: Montserrat-Medium, Montserrat;
        font-weight: 500;
      }

      .st6 {
        fill: #715b88;
      }

      .st7 {
        fill: #524164;
      }

      .st8 {
        fill: #fff;
      }

      .st9 {
        fill: none;
      }

      .st10 {
        fill: #67527d;
      }

      .st2 {
        font-size: 20px;
      }

      .st11 {
        fill: #7f6698;
      }

      .st12 {
        display: none;
      }

      .st13 {
        fill: #fdd4d4;
      }

      .st14 {
        fill: #9f81c1;
      }

      .st3, .st5 {
        font-family: Montserrat-ExtraBold, Montserrat;
        font-size: 145.1px;
        font-weight: 700;
      }

      .st15 {
        clip-path: url(#clippath);
      }

      .st5, .st16 {
        fill: #fc757f;
      }
    </style>
    <clipPath id="clippath">
      <path class="st9" d="M1635.3,185.1l-56.2-9.8-135.1-55.4-124.5,4.2-155.8,174.3-27.9,240.3,89.6,69.6c109.3,104.2,282.4,102.6,389.8-4.8,28.3-17.5,36.5-54.7,90.4-68,60.9-15.1,160-10.5,163.9-42,6.7-54.1-78.6-159.6-103.5-209.4l-28.4-77.6-102.2-21.3h0Z"/>
    </clipPath>
  </defs>
  <g id="Capa_11" data-name="Capa_1">
    <rect class="st8" width="1200" height="905"/>
    <g>
      <g>
        <rect class="st16" y=".2" width="78.3" height="429.8"/>
        <rect class="st13" y="263.5" width="31" height="270.5"/>
      </g>
      <g class="st12">
        <path class="st13" d="M1096.5,332.6c-107.4,107.4-109,280.5-4.8,389.8l394.6-394.6c-109.3-104.2-282.4-102.6-389.8,4.8h0Z"/>
        <path class="st16" d="M1615.1,603.5c107.4-107.4,109-280.5,4.8-389.8l-394.6,394.6c109.3,104.2,282.4,102.6,389.8-4.8h0Z"/>
        <g class="st15">
          <g>
            <g>
              <g>
                <path class="st8" d="M1565.8,264.5c-31-13.2-61.7-27.3-93.3-39.1-34.2-12.8-69-17.3-102.9-1.6-53,24.6-93.2,87.2-158.8,74.7-3.1-.6-1.8-5.3,1.3-4.7,68.2,13,112-60.2,170.5-80.5,28.6-9.9,59.2-3.6,86.9,5.9,33.2,11.4,65.3,26.9,97.6,40.6,2.9,1.2,1.6,6-1.3,4.7h0Z"/>
                <path class="st8" d="M1557.1,299.8c-61.2-15.9-116.4-70.3-181.7-37.1-46.9,23.9-82,79.9-140.8,73.5-3.1-.3-3.1-5.3,0-4.9,62.5,6.8,100.1-59.2,153.4-79.5,60-22.9,115.4,29.1,170.5,43.3,3.1.8,1.8,5.5-1.3,4.7h0Z"/>
              </g>
              <g>
                <path class="st11" d="M1248.9,294.2l-2.5.7,11.1,39.6c-2.2,0-5,1.2-7.5,3.4-3.8,3.4-5.4,7.8-3.5,9.8,1.8,2,6.4,1,10.2-2.4,3.3-2.9,4.9-6.6,4.1-8.8h0l-11.8-42.3h0Z"/>
                <path class="st11" d="M1490.6,207.9l-2.5.7,11.1,39.6c-2.2,0-5,1.2-7.5,3.4-3.8,3.4-5.4,7.8-3.5,9.8,1.8,2,6.4,1,10.2-2.4,3.3-2.9,4.9-6.6,4.1-8.8h0l-11.8-42.3Z"/>
                <path class="st11" d="M1317.7,284.8c-2-5.1-7.8-8.5-13.3-8.5l-2.5.7,11.1,39.6c-2.2,0-5,1.2-7.5,3.4-3.8,3.4-5.4,7.8-3.5,9.8,1.8,2,6.4,1,10.2-2.4,3.3-2.9,4.9-6.6,4.1-8.8h0l-10.9-38.9c3.9.5,7.6,3,9.5,6.5,2.1,3.9,1.7,9.9-.6,13.6,4-3.7,5.5-9.9,3.5-15h0Z"/>
                <path class="st11" d="M1280,278.6c-2-5.1-7.8-8.5-13.3-8.5l-2.5.7,11.1,39.6c-2.2,0-5,1.2-7.5,3.4-3.8,3.4-5.4,7.8-3.5,9.8,1.8,2,6.4,1,10.2-2.4,3.3-2.9,4.9-6.6,4.1-8.8h0l-10.9-38.9c3.9.5,7.6,3,9.5,6.5,2.1,3.9,1.7,9.9-.6,13.6,4-3.7,5.5-9.9,3.5-15h0Z"/>
                <path class="st11" d="M1520.8,253.1l1.4,4.9,1.1,3.8.7,2.7,7.9,28.2c-2.2,0-5,1.2-7.5,3.4-3.8,3.4-5.4,7.8-3.5,9.8s6.4,1,10.2-2.4c3.3-2.9,4.9-6.6,4.1-8.8h0l-8.9-31.9,18.8-14.7,8.2,29.4c-2.2,0-5,1.2-7.5,3.4-3.8,3.4-5.4,7.8-3.5,9.8,1.8,2,6.4,1,10.2-2.4,3.3-2.9,4.9-6.6,4.1-8.8h0l-9.2-33.1-.6-2.2-1.2-4.2-.8-2.8-.5-1.7-23.2,17.7h0ZM1544.3,245.8l-18.9,14.3-1.1-3.8,18.8-14.7,1.2,4.2h0Z"/>
              </g>
            </g>
            <g>
              <g>
                <g>
                  <path class="st10" d="M1368.2,349.5l-43.5-5.1c-22.7-2.6-45.2,6.4-59.7,23.9l-52.9,63.8,48.8,38.9,14.8-14.8-24,168.9h177.3l8.5-52.8c3.3-20.3,9.1-40.1,17.4-59l24.2-55,12,41,53-16.7-30.4-80c-8.2-21.5-27.2-37-49.9-40.6l-39.9-6.4-55.8-6.1h0Z"/>
                  <polygon class="st7" points="1275.6 456.2 1305.3 425.1 1261.9 552.5 1275.6 456.2"/>
                  <polygon class="st7" points="1479.1 458.3 1524.5 488.8 1491.1 499.3 1479.1 458.3"/>
                </g>
                <g>
                  <g>
                    <g>
                      <path class="st7" d="M1430.5,719c8.9-14.2,23.4-24.6,39.6-29l-40.9-64.9h-111.9l54.3,92.1c15.7,26.5,33.3,51.9,52.5,75.8-.7-2.3-1.3-4.5-1.8-6.8-5.3-22.5-4.2-47.5,8.1-67.2Z"/>
                      <path class="st10" d="M1565,840.7l-94.8-150.6c-16.2,4.3-30.7,14.7-39.6,29-12.2,19.7-13.4,44.6-8.1,67.2.5,2.3,1.2,4.6,1.8,6.8,13.3,16.6,27.4,32.5,42.4,47.7l34.8,35.4-13.8,37.8c-8.8,24.3-14.2,49.7-16,75.5l-8.5,123.1h68.8l44-211.1c4.4-20.9.4-42.7-10.9-60.8h0Z"/>
                    </g>
                    <polygon class="st7" points="1531.2 1140.1 1454.8 1140.1 1459.5 1112.6 1536 1112.6 1531.2 1140.1"/>
                    <g>
                      <path class="st8" d="M1548.1,1178.9c-.2.5-.4,1-.6,1.6h51.5c-3.6-8.4-10.3-15.2-18.9-18.7l-8.1-3.3c-10.2,3.4-19.1,10.8-23.9,20.5h0Z"/>
                      <path class="st1" d="M1548.1,1178.9c4.8-9.7,13.7-17.1,23.9-20.5l-44.6-18.2h-65.9l-5.1,40.3h91.2c.2-.5.4-1.1.6-1.6h0Z"/>
                      <path class="st8" d="M1601,1186.6c-.5-2.2-1.2-4.2-2-6.2h-142.7l-1.5,11.8h147.4l-1.2-5.6Z"/>
                    </g>
                  </g>
                  <g>
                    <path class="st10" d="M1385.7,953.2l-37.4,159.3h-68.8l8.1-102.3c2.1-26.4,8.7-52.3,19.4-76.6l13.9-31.2-31.9-93.8c-3.7-11-6.7-22.2-8.9-33.5l-28.7-150.1h111.9l27.9,220c4.6,36.1,2.7,72.7-5.6,108.1h0Z"/>
                    <polygon class="st7" points="1347 1140.1 1270.5 1140.1 1275.2 1112.6 1351.7 1112.6 1347 1140.1"/>
                    <g>
                      <path class="st1" d="M1328.8,1176.8c10.4-5.2,22.4-7.2,34-5.7l-13.3-7.8c-8.1-4.7-12.4-13.9-11-23.1h-58.4l-7.7,52.1h37.3c5.2-6.4,11.7-11.7,19-15.4h0Z"/>
                      <path class="st8" d="M1328.8,1176.8c-7.3,3.7-13.8,9-19,15.4h74.3c-1.9-6.6-6.2-12.3-12.3-15.9l-8.9-5.2c-11.6-1.4-23.6.5-34,5.7h0Z"/>
                      <path class="st8" d="M1384,1192.2h-111.6l-1.9,12.7h114.6v-5.2c0-2.6-.4-5.1-1.1-7.6h0Z"/>
                    </g>
                  </g>
                </g>
                <g>
                  <g>
                    <path class="st14" d="M1422.7,335.7c-9.2,5.3-20.9,6.1-30.5,1.5-7.2-3.5-12.6-9.3-17.3-15.8-.5,11.5-3.4,22.9-6.7,28.1h0c8.3,24.5,41.2,28.6,55.3,7l.5-.8c-2.3-4.3-2.2-12.1-1.3-20h0Z"/>
                    <path class="st6" d="M1392.2,337.2c9.6,4.6,21.3,3.8,30.5-1.5,1.5-12.2,5.2-24.7,5.2-24.7l-55-9.6c1.8,5.9,2.4,13,2,20,4.7,6.5,10.2,12.4,17.3,15.8h0Z"/>
                  </g>
                  <path class="st1" d="M1480.8,207.5c7.8,6.6,11.9,17.1,10.7,27.2-1.2,10.1-7.6,19.5-16.7,24,5.4,8.6,5,20.6-1.1,28.8s-17.2,11-27,8.3c-18.4,13.8-45.2,14.1-64.5,1.5-9.8,5-20.7,8.3-31.6,7.5-10.9-.8-21.8-6.2-27.6-15.5-5.8-9.3-5.5-23.7,2.2-31.5-7.8-5.5-12.1-15.6-10.6-25.1,1.5-9.5,9.7-18.6,18.8-21.4-5.6-6.9-7.2-16.8-3.9-25,3.2-8.2,11.5-14.7,20.2-15.9.7-10.4,7.7-20.2,17.4-24.1,9.7-3.9,21.5-1.8,29.2,5.1,3.4-11.6,15.7-20.5,27.8-20.7,12.1-.2,23.8,8.1,27.6,19.6,4.1-2.6,11.1-1.9,15.8-.6,4.7,1.3,8.7,4.7,10.8,9.1,3.1,6.5,1.9,14.3-.7,21.1,1.8-.6,3.8.1,5.5,1.1s2.9,2.6,3.8,4.3c3.6,6.8-.2,17.3-6.1,22.1h0Z"/>
                  <path class="st6" d="M1463.5,249.2c11.2,0,20.2,9.1,20.2,20.3s-9.1,20.2-20.2,20.2h-13.2v-40.5h13.2Z"/>
                  <ellipse class="st14" cx="1411.6" cy="249.2" rx="59.7" ry="73.5"/>
                  <g>
                    <path class="st1" d="M1416.1,237.2c-2.6-5-8.1-8.3-13.7-8.3-5.6,0-11.1,3.5-13.5,8.6,8.4-1.2,18.7-1,27.2-.3Z"/>
                    <path class="st1" d="M1463.8,242.9c-1.1-4.6-5.1-8.3-9.7-9.1-4.6-.8-9.6,1.5-12.1,5.5,6.9,1,14.9,2.6,21.8,3.6Z"/>
                    <path class="st1" d="M1404.6,259.6h0c-2.5,0-4.5-2.2-4.4-4.7l.2-5.5c0-2.5,2.2-4.5,4.7-4.4h0c2.5,0,4.5,2.2,4.4,4.7l-.2,5.5c0,2.5-2.2,4.5-4.7,4.4Z"/>
                    <path class="st1" d="M1453.5,249.9h.3c2.1.5,3.5,2.5,3.1,4.6l-1.1,5.8c-.4,2.1-2.4,3.5-4.5,3.1h-.3c-2.1-.5-3.5-2.5-3.1-4.6l1.1-5.8c.4-2.1,2.4-3.5,4.5-3.1h0Z"/>
                    <path class="st6" d="M1436.3,274.8c-5.8,0-11.5-.1-17.3-.2,1.2,3.5,4.4,6.8,8,7.2s8.3-3.4,9.3-7Z"/>
                    <path class="st8" d="M1445,291.6c-14.4.9-28.9-.1-43-3,2.4,9.2,10.8,16.5,20.3,17.4,9.4.8,18.7-5.8,22.7-14.4Z"/>
                  </g>
                  <path class="st1" d="M1472,234.1c-6.2-1.6-11.4-6.4-14.9-11.8-6.1,2.4-13.2,1-18.9-2.1-5.8-3.1-10.4-8.3-15.1-13-7.3,9.2-20.7,14.1-32.2,12,1.2,5.5.4,11.4-2.4,16.4-2.8,4.9-7.6,9.1-12.9,10.9,2.1,12.9-2.8,26.7-12.6,35.3-4.7-.4-9.3-4-11.6-8.1s-3-9-3.4-13.7c-1.5-17.8.8-36.1,8.5-52.1s20.9-29.8,37.4-36.5,36.3-5.9,51.4,3.6c9.6,6,17,15.2,21.7,25.5s4.7,22.4,5,33.8h0Z"/>
                  <path class="st14" d="M1355,249.2c-11.6,0-20.8,9.7-20.2,21.3.6,11,10.4,19.2,21.4,19.2h12v-28.3c0-6.7-5.4-12.2-12.2-12.2h-1,0Z"/>
                </g>
              </g>
              <g>
                <polygon class="st1" points="1540.6 483.8 1494.4 498.3 1501.4 518.7 1544 498.6 1540.6 483.8"/>
                <path class="st6" d="M1557.5,556.8l-13.5-58.2-42.6,20,19.1,56.2c6.6,19.3,29.6,27.1,46.6,15.8l60.1-40.1-69.6,6.2Z"/>
              </g>
              <path class="st14" d="M1619.7,516c-.7-3-.8-6.2-1.8-9.1s-3.4-5.7-6.5-6c-3.8-.4-7.1,3.4-7.6,7.2-.6,3.8.8,7.6,2.2,11.2,3.4-.4,10.3-2.8,13.7-3.2h0Z"/>
              <g>
                <path class="st1" d="M1427.9,356.3l49,175.2h0c6.2-2.2,9.9-8.6,8.7-15.1l-27.8-155.3-29.8-4.8h0Z"/>
                <g>
                  <g>
                    <path class="st1" d="M1351.2,554.1l-30.7-7.2c-22.2-5.2-45.2,4.1-57.6,23.2l-3.4,5.3c-16.4,25.4-19.2,57.2-7.3,85l11.7,27.3c5.9,13.7,14.6,26,25.7,36h0c19.2,17.4,48.6,17,67.4-.8l14.3-13.5c17.7-16.7,41.8-24.6,66-21.7l1.7.2c21.9,2.7,43.4-7.4,55.3-26l5.4-8.3c5.7-8.8-1.7-20.2-12.1-18.6l-10.9,1.7c-14.4,2.3-28.2-6.5-32.2-20.5l-8.9-30.7c-2-6.8-1.4-14.1,1.7-20.5h0c6.9-14.5,19.2-25.7,34.2-31.4l5.5-2.1c10.1-3.8,8-18.7-2.8-19.6l-25.9-2.2c-14-1.2-27.7,5-36,16.4l-5.4,7.4c-12.7,17.4-34.6,25.5-55.5,20.5h0Z"/>
                    <path class="st8" d="M1468.8,663.4c4.3-4.3,7.4-11.4,4-16.7-2.9-4.6-9.2-5.5-14.4-4.7-5.2.7-10.5,2.4-15.6,1.1-7.8-2.1-12.3-10.4-15-18.2-6.7-19.3-7.4-40.4-2.3-59.5.9-3.5,2.1-7.5.4-10.7-2.7-5.3-10.8-4.8-15.4-1.2-4.6,3.7-7.2,9.3-11.2,13.6-7.2,7.5-18.2,9.9-28.6,9.9-10.3,0-20.6-2-30.9-1.5-10.3.5-21.1,3.9-27.4,12.3-5.5,7.5-6.4,17.6-4.8,26.8,1.7,9.3,5.8,17.9,9.4,26.6,3.7,8.8,7.1,18,7.2,27.7,0,5.9-1,11.7-.9,17.6.2,5.9,1.9,12.2,6.4,15.8,6.1,5,15.2,3,21.7-1.3,6.5-4.3,11.5-10.7,17.9-15.2,14.3-10.1,33-9.4,50.5-9.1,17.5.3,36.8-.9,49.2-13.4h0Z"/>
                  </g>
                  <g>
                    <path class="st1" d="M1737.7,476l8.7-8.9c6.4-6.5,15.6-9.4,24.5-7.8l68.8,12.9c11.2,2.1,18.8,12.4,17.5,23.7h0c-.9,7.6-7.1,13.4-14.8,13.7h-3c-8.4.4-15.5-6-16-14.4h0c-.3-5.1-6.2-7.9-10.3-4.9l-23.6,17.1c-6.7,4.9-15.2,6.3-23.1,3.8l-20.9-6.5-7.8-29h0Z"/>
                    <g>
                      <polygon class="st1" points="1411.6 586.2 1424 628.9 1738.9 507.5 1731 478.3 1411.6 586.2"/>
                      <polygon class="st14" points="1737.7 476 1731 478.3 1738.9 507.5 1745.4 505 1737.7 476"/>
                    </g>
                  </g>
                </g>
              </g>
              <path class="st14" d="M1583.2,553.4l3.9,10.7c2.3,6.3,9.3,9.6,15.6,7.2l36.9-13.8c6.1-2.3,9.3-8.9,7.3-15l-7.2-22.6c-1.6-5-7-7.8-12-6.2h0c-3.5,1.1-6.1,4.2-6.6,7.8l-.4,3-27.5,8.7c-8.5,2.7-13,11.9-10,20.3h0Z"/>
              <g>
                <polygon class="st7" points="1739.4 255.2 1635.5 376.8 1697.8 368.2 1642.2 461.7 1761.8 338 1693.1 343 1739.4 255.2"/>
                <polygon class="st7" points="1583.6 277.8 1564 365.4 1590.6 348.4 1586 424.7 1612 315.5 1580.5 335.7 1583.6 277.8"/>
                <polygon class="st7" points="1819.3 708.3 1705.5 628.9 1759.7 622.5 1692.5 556.2 1820.1 633.9 1761.2 644.7 1819.3 708.3"/>
                <polygon class="st7" points="1683.6 723.4 1647.9 654.2 1674 662.6 1653.4 599.5 1699.2 685.6 1668.3 675.5 1683.6 723.4"/>
              </g>
              <g>
                <path class="st14" d="M1425.6,623.6c0-3.2-2.8-5.8-6-5.5l-12.8,1.3,1.6-.9c4.1-2.4,6.3-7.1,5.5-11.8l-14.1,2.1-12.2-9.1c-5.8-4.4-13.6-5.2-20.2-2.1l-23.9,11.2-122.2-101.7,18.3-21.7-44.5-27.9-19.7,21.3c-18,19.5-13.5,50.7,9.4,64.2l148.2,87.7,25.6,22.2c2.4,2,5.4,3.2,8.5,3.2h47c4.1,0,7.7-2.8,8.8-6.8l1.6-6c.7-2.7-1.2-5.4-4-5.6l-27.2-2,28.3-7c2.4-.6,4.2-2.8,4.2-5.3h0Z"/>
                <polygon class="st6" points="1255.2 466.7 1215.7 435.1 1194.9 457.5 1239.5 485.4 1255.2 466.7"/>
              </g>
            </g>
          </g>
        </g>
      </g>
    </g>
    <g>
      <g class="st4">
        <text class="st2" transform="translate(1344.3 -62.4)"><tspan x="0" y="0">FAQ</tspan></text>
      </g>
      <g class="st12">
        <g class="st4">
          <text class="st0" transform="translate(296.2 484.2)"><tspan x="0" y="0">Lorem ipsum dolor sit amet, consectetur </tspan></text>
          <text class="st0" transform="translate(249.6 510.7)"><tspan x="0" y="0">adipiscing elit. Phasellus purus lectus, iaculis non </tspan></text>
          <text class="st0" transform="translate(342.8 537)"><tspan x="0" y="0">facilisis bibendum, porta in odio.</tspan></text>
        </g>
        <g class="st12">
          <circle class="st13" cx="400.3" cy="625.1" r="10.6"/>
          <circle class="st13" cx="482.6" cy="625.1" r="10.6"/>
          <circle class="st13" cx="565" cy="625.1" r="10.6"/>
          <circle class="st13" cx="647.3" cy="625.1" r="10.6"/>
        </g>
      </g>
      <g>
        <circle class="st8" cx="340.5" cy="49.7" r="6"/>
        <circle class="st8" cx="381.3" cy="49.7" r="6"/>
        <circle class="st8" cx="422.1" cy="49.7" r="6"/>
        <circle class="st8" cx="462.8" cy="49.7" r="6"/>
        <circle class="st8" cx="503.6" cy="49.7" r="6"/>
        <circle class="st8" cx="544.4" cy="49.7" r="6"/>
        <circle class="st8" cx="585.2" cy="49.7" r="6"/>
        <circle class="st8" cx="625.9" cy="49.7" r="6"/>
        <circle class="st8" cx="666.7" cy="49.7" r="6"/>
        <circle class="st8" cx="707.5" cy="49.7" r="6"/>
      </g>
      <g class="st12">
        <g>
          <g class="st4">
            <text class="st5" transform="translate(143 200.3)"><tspan x="0" y="0">MUSIC</tspan></text>
          </g>
          <g class="st4">
            <text class="st3" transform="translate(143 341.3)"><tspan x="0" y="0">FESTIVAL</tspan></text>
          </g>
        </g>
        <g>
          <polygon class="st16" points="691.7 93.7 691.7 204.7 768 169.5 768 128.9 691.7 93.7"/>
          <polygon class="st13" points="888.2 149.2 768 93.7 768 128.9 812 149.2 768 169.5 768 204.7 888.2 149.2"/>
          <polygon class="st1" points="768 128.9 768 169.5 812 149.2 768 128.9"/>
        </g>
      </g>
    </g>
  </g>
  <g id="Capa_2">
    <image class="st4" width="1200" height="675" transform="translate(0 -175) scale(1.6)" xlink:href="izquierdaXW-1.png"/>
  </g>
</svg>