<?xml version="1.0" encoding="UTF-8"?>
<svg id="Capa_1" xmlns="http://www.w3.org/2000/svg" version="1.1" viewBox="0 0 769 176">
  <!-- Generator: Adobe Illustrator 29.0.0, SVG Export Plug-In . SVG Version: 2.1.0 Build 186)  -->
  <defs>
    <style>
      .st0 {
        fill: #fff;
      }

      .st1, .st2 {
        isolation: isolate;
      }

      .st2 {
        font-family: Montserrat-Bold, Montserrat;
        font-size: 63.1px;
        font-weight: 700;
      }

      .st2, .st3 {
        fill: #fc757f;
      }
    </style>
  </defs>
  <g id="Capa_11">
    <g>
      <g class="st1">
        <g class="st1">
          <g class="st1">
            <text class="st2" transform="translate(499.6 78.1)"><tspan x="0" y="0">CRINGE</tspan></text>
          </g>
        </g>
      </g>
      <g class="st1">
        <g class="st1">
          <g class="st1">
            <text class="st2" transform="translate(499.6 138.6)"><tspan x="0" y="0">MUSIC</tspan></text>
          </g>
        </g>
      </g>
    </g>
    <g>
      <g>
        <circle class="st3" cx="408.1" cy="88.9" r="10.8"/>
        <path class="st3" d="M434.3,60.1l19.5-17.7-.6-13.4,5.7-2.8c.3,0,3.1,2.4,3.6,2.8,40.2,36.9,33.3,102-13.7,129.5-47.3,27.6-108.1.7-119.7-52.4-13.1-60.7,44.3-113.4,103.6-94.3.7.3,4.8,1.6,5,1.9l-.9,13.2,4.4,8.3-7,24.8h0ZM425.2,68.7c-14.4-12.3-36.3-6-42.2,11.8-6.8,21.4,14.5,41,35.3,32.3,17.8-7.6,21.7-31.6,6.8-44.2Z"/>
        <polygon class="st3" points="458.2 18.3 444.4 23.2 446.6 12.1 458.2 18.3"/>
      </g>
      <path class="st0" d="M425.2,68.7c-14.4-12.3-36.3-6-42.2,11.8-6.8,21.4,14.5,41,35.3,32.3,17.8-7.6,21.7-31.6,6.8-44.2ZM408.1,93.8c-2.8,0-5.1-2.3-5.1-5.1s2.3-5.1,5.1-5.1,5.1,2.3,5.1,5.1-2.3,5.1-5.1,5.1Z"/>
    </g>
  </g>
</svg>