<?xml version="1.0" encoding="UTF-8"?>
<svg id="Capa_1" xmlns="http://www.w3.org/2000/svg" version="1.1" viewBox="0 0 769 176">
  <!-- Generator: Adobe Illustrator 29.0.0, SVG Export Plug-In . SVG Version: 2.1.0 Build 186)  -->
  <defs>
    <style>
      .st0 {
        fill: #392d46;
      }

      .st1 {
        fill: #fff;
      }

      .st2 {
        font-family: Montserrat-Bold, Montserrat;
        font-size: 32.7px;
        font-weight: 700;
      }

      .st2, .st3 {
        isolation: isolate;
      }

      .st2, .st4 {
        fill: #fc757f;
      }

      .st5 {
        display: none;
      }

      .st6 {
        fill: #fdd4d4;
      }
    </style>
  </defs>
  <g id="Capa_2" class="st5">
    <g>
      <rect class="st1" x=".2" y="-.5" width="307.4" height="177"/>
      <path d="M768.6,0v176H.4V0h768.2M769-1H0v178h769V-1h0Z"/>
    </g>
  </g>
  <g id="Capa_11">
    <g>
      <rect class="st0" x="-.2" y=".5" width="362.6" height="175.2"/>
      <rect class="st6" x="270.8" y=".5" width="497.2" height="33"/>
    </g>
    <g>
      <g class="st3">
        <g class="st3">
          <text class="st2" transform="translate(181.5 90.7)"><tspan x="0" y="0">CRINGE</tspan></text>
        </g>
      </g>
      <g class="st3">
        <g class="st3">
          <text class="st2" transform="translate(181.5 122.1)"><tspan x="0" y="0">MUSIC</tspan></text>
        </g>
      </g>
    </g>
    <g>
      <g>
        <path class="st4" d="M127.1,78.6l13.7-12.4-.4-9.4,4-2c.2,0,2.2,1.7,2.5,2,28.2,25.9,23.4,71.6-9.6,90.9-33.2,19.4-75.9.5-84-36.8-9.2-42.6,31.1-79.6,72.7-66.2.5.2,3.4,1.1,3.5,1.3l-.6,9.3,3.1,5.8-4.9,17.4h0ZM120.7,84.6c-10.1-8.6-25.5-4.2-29.6,8.3-4.8,15,10.2,28.8,24.8,22.7,12.5-5.3,15.2-22.2,4.8-31Z"/>
        <polygon class="st4" points="143.9 49.2 134.2 52.7 135.7 44.9 143.9 49.2"/>
      </g>
      <path class="st1" d="M120.7,84.6c-10.1-8.6-25.5-4.2-29.6,8.3-4.8,15,10.2,28.8,24.8,22.7,12.5-5.3,15.2-22.2,4.8-31ZM108.7,102.2c-2,0-3.6-1.6-3.6-3.6s1.6-3.6,3.6-3.6,3.6,1.6,3.6,3.6-1.6,3.6-3.6,3.6Z"/>
    </g>
  </g>
</svg>