<?xml version="1.0" encoding="UTF-8"?>
<svg xmlns="http://www.w3.org/2000/svg" version="1.1" xmlns:xlink="http://www.w3.org/1999/xlink" viewBox="0 0 486 983">
  <!-- Generator: Adobe Illustrator 29.0.0, SVG Export Plug-In . SVG Version: 2.1.0 Build 186)  -->
  <defs>
    <style>
      .st0, .st1, .st2, .st3, .st4 {
        fill: #f65aab;
      }

      .st5, .st1, .st4, .st6 {
        font-family: Montserrat-Regular, Montserrat;
      }

      .st5, .st1, .st6 {
        font-size: 18.1px;
      }

      .st5, .st7, .st8, .st9, .st10, .st6 {
        fill: #f6f9fa;
      }

      .st11, .st12, .st13, .st14 {
        fill: #fff;
      }

      .st12 {
        font-size: 24.1px;
      }

      .st12, .st3, .st8, .st10 {
        font-family: Montserrat-SemiBold, Montserrat;
        font-weight: 600;
      }

      .st15 {
        fill: none;
        stroke: #fff;
        stroke-miterlimit: 10;
      }

      .st2, .st8, .st16, .st6 {
        display: none;
      }

      .st13 {
        font-family: Montserrat-Bold, Montserrat;
        font-size: 17.6px;
        font-weight: 700;
      }

      .st17 {
        filter: url(#drop-shadow-1);
      }

      .st3, .st8, .st10 {
        font-size: 28.4px;
      }

      .st7 {
        opacity: .4;
      }

      .st7, .st14 {
        mix-blend-mode: overlay;
      }

      .st18 {
        isolation: isolate;
      }

      .st4 {
        font-size: 21.1px;
      }

      .st19 {
        fill: #f457ad;
      }

      .st20 {
        fill: #201649;
      }

      .st21 {
        fill: #3f287e;
      }
    </style>
    <filter id="drop-shadow-1" x="6.7" y="5.7" width="482" height="978" filterUnits="userSpaceOnUse">
      <feOffset dx="6.1" dy="5.1"/>
      <feGaussianBlur result="blur" stdDeviation="4.1"/>
      <feFlood flood-color="#000" flood-opacity=".4"/>
      <feComposite in2="blur" operator="in"/>
      <feComposite in="SourceGraphic"/>
    </filter>
  </defs>
  <g class="st18">
    <g id="Capa_1">
      <g class="st17">
        <path class="st20" d="M469.5,57.3v864c0,24.5-19.8,44.3-44.3,44.3H58c-24.5,0-44.3-19.8-44.3-44.3V57.3c0-24.5,19.8-44.3,44.3-44.3h367.2c24.5,0,44.3,19.8,44.3,44.3Z"/>
        <path class="st14" d="M469.5,778.3v143c0,24.5-19.8,44.3-44.3,44.3H58c-24.5,0-44.3-19.8-44.3-44.3v-143h455.8Z"/>
        <g>
          <path class="st20" d="M108.9,887.9c-1.6-2.1-4-3.5-6.8-3.8-3.1-.4-6.3.6-8.7,2.5-.2.1-.7.6-1.3,1.1-2.4-2.4-5.8-3.8-9-3.7-3,0-5.5,1.4-7.3,3.6-2.3,3-3.2,7.8-2.2,12.1.9,3.7,3,7.2,6,10.1,1.6,1.6,3.6,3,5.8,4.2l.5.3c1.7.9,3.8,2.2,6.1,2.2s.5,0,.7,0c.8,0,1.4-.3,2-.5.5-.2,1-.4,1.4-.6,6.1-2.8,10.9-7.3,13.3-12.3,1.3-2.8,1.8-5.6,1.6-8.6-.2-2.6-.9-4.8-2.2-6.6ZM105,901c-1.9,4-5.8,7.6-10.9,10-.4.2-.8.4-1.2.5-.2,0-.5.2-.6.2-1,0-2.7-.9-3.8-1.5l-.6-.4c-1.9-1.1-3.5-2.2-4.8-3.5-2.4-2.3-4-4.9-4.6-7.7-.7-2.9-.2-6.1,1.3-8,.9-1.1,2-1.7,3.6-1.7h.2c2.2,0,4.5,1.2,6,3,.6.8,1.6,1.3,2.6,1.3,1,0,2-.4,2.6-1.1.6-.7,1.7-1.6,1.8-1.7,1.4-1.1,3.3-1.6,5.1-1.4,1,.1,2.4.6,3.5,1.9.7.9,1.1,2.2,1.2,3.9,0,.3,0,.6,0,.9,0,1.8-.4,3.6-1.2,5.3Z"/>
          <path class="st20" d="M213.8,911.5l-5.8-5.8c3.5-6,2.7-13.7-2.4-18.9s-15.9-6.1-22,0c-6.1,6.1-6.1,16,0,22,5.1,5.1,12.9,5.8,18.8,2.4l5.8,5.8c1.5,1.5,4,1.5,5.6,0s1.5-4,0-5.6ZM202.1,905.4c-4.1,4.1-10.8,4.1-14.9,0-4.1-4.1-4.1-10.8,0-14.9,4.1-4.1,10.8-4.1,14.9,0,4.1,4.1,4.1,10.8,0,14.9Z"/>
          <path class="st20" d="M320,896c-.3-.9-1.1-1.5-2-1.7l-9.6-1.4-4.3-8.7c-.4-.8-1.3-1.4-2.2-1.4s-1.8.5-2.2,1.4l-4.3,8.7-9.6,1.4c-.9.1-1.7.8-2,1.7-.3.9,0,1.9.6,2.5l6.9,6.7-1.6,9.5c-.2.9.2,1.9,1,2.4.4.3.9.5,1.4.5s.8,0,1.1-.3l8.6-4.5,8.6,4.5c.8.5,1.8.4,2.6-.2s1.1-1.5,1-2.4l-1.6-9.5,6.9-6.7c.7-.7.9-1.6.6-2.5ZM308.1,902.7c-.6.5-.8,1.4-.7,2.2l1,5.9-5.3-2.8c-.7-.4-1.6-.4-2.3,0l-5.3,2.8,1-5.9c.1-.8-.2-1.6-.7-2.2l-4.3-4.2,6-.8c.8-.1,1.5-.6,1.8-1.4l2.6-5.4,2.7,5.4c.4.7,1,1.2,1.8,1.4l5.9.8-4.3,4.2Z"/>
          <g>
            <path class="st20" d="M422.2,891.5h-30.7c-1.4,0-2.5-1.1-2.5-2.5s1.1-2.5,2.5-2.5h30.7c1.4,0,2.5,1.1,2.5,2.5s-1.1,2.5-2.5,2.5Z"/>
            <path class="st20" d="M422.2,902.8h-30.7c-1.4,0-2.5-1.1-2.5-2.5s1.1-2.5,2.5-2.5h30.7c1.4,0,2.5,1.1,2.5,2.5s-1.1,2.5-2.5,2.5Z"/>
            <path class="st20" d="M422.2,914h-30.7c-1.4,0-2.5-1.1-2.5-2.5s1.1-2.5,2.5-2.5h30.7c1.4,0,2.5,1.1,2.5,2.5s-1.1,2.5-2.5,2.5Z"/>
          </g>
        </g>
        <g>
          <rect class="st21" x="13.7" y="774" width="455.8" height="9.5"/>
          <path class="st19" d="M288.9,778.8c0,2.6-2.1,4.7-4.8,4.7H13.7v-9.5h270.4c2.4,0,4.5,1.9,4.7,4.2,0,.2,0,.3,0,.5Z"/>
          <path class="st19" d="M292.5,778.8c0,3.9-3.2,7.1-7.1,7.1s-7.1-3.2-7.1-7.1,3.2-7.1,7.1-7.1,7.1,3.2,7.1,7.1Z"/>
        </g>
        <g>
          <path class="st0" d="M469.5,57.3v100.3H13.7V57.3c0-24.5,19.8-44.3,44.3-44.3h367.2c24.5,0,44.3,19.8,44.3,44.3Z"/>
          <g>
            <text class="st13" transform="translate(33.7 58.1)"><tspan x="0" y="0">10:12</tspan></text>
            <g>
              <g>
                <rect class="st11" x="389.6" y="47.6" width="3.3" height="13.3"/>
                <rect class="st11" x="384.1" y="50.6" width="3.3" height="10.4"/>
                <rect class="st11" x="378.7" y="54.3" width="3.3" height="6.6"/>
                <rect class="st11" x="373.2" y="57.3" width="3.3" height="3.7"/>
              </g>
              <g>
                <path class="st11" d="M409.5,58.9c0,1.2-.9,2.1-2,2.1s-2.1-.9-2.1-2.1.9-2,2.1-2,2,.9,2,2Z"/>
                <g>
                  <path class="st11" d="M412,55.9c-.2.2-.4.2-.6.2s-.5,0-.7-.3c-1.6-1.8-4.7-1.8-6.5,0-.3.3-.9.4-1.3,0-.4-.4-.4-1,0-1.3,2.5-2.5,6.8-2.5,9.2,0,.3.4.3,1,0,1.3Z"/>
                  <path class="st11" d="M413.8,52.8c-.2.2-.5.3-.7.3s-.5,0-.6-.2c-2.8-2.4-7.3-2.4-10,0-.4.3-1,.3-1.3-.1-.3-.4-.3-1,.1-1.3,3.4-3,9-3,12.5,0,.4.3.4.9.1,1.3Z"/>
                  <path class="st11" d="M415.6,49.7c-.2.2-.5.4-.7.4s-.4,0-.6-.2c-3.9-3.1-9.8-3.1-13.7,0-.4.3-1,.2-1.3-.2-.3-.4-.2-1,.2-1.3,4.6-3.6,11.5-3.6,16,0,.4.3.5.9.2,1.3Z"/>
                </g>
              </g>
              <g>
                <path class="st11" d="M447.3,51.7c-.2-1.7-1.6-3.1-3.4-3.1h-17.2c-1.9,0-3.4,1.5-3.4,3.4v5.1c0,1.9,1.5,3.4,3.4,3.4h17.2c1.8,0,3.3-1.4,3.4-3.1,0,0,0-.2,0-.3v-5.1c0-.1,0-.2,0-.4ZM443.9,59.7h-17.2c-1.4,0-2.5-1.1-2.5-2.5v-5.1c0-1.4,1.1-2.5,2.5-2.5h17.2c1.4,0,2.5,1.1,2.5,2.5v5.1c0,1.4-1.1,2.5-2.5,2.5Z"/>
                <rect class="st11" x="425.7" y="50.3" width="17.7" height="8.5" rx="2.3" ry="2.3"/>
                <path class="st11" d="M446.4,51.7v5.8h3v-5.8h-3ZM448.5,56.6h-1.2v-4h1.2v4Z"/>
              </g>
            </g>
          </g>
          <text class="st12" transform="translate(193.6 63.1)"><tspan x="0" y="0">Play list</tspan></text>
        </g>
        <g>
          <rect class="st7" x="13.7" y="181.6" width="455.8" height="94.6"/>
          <g>
            <g>
              <text class="st8" transform="translate(62.8 225.8)"><tspan x="0" y="0">Song Title</tspan></text>
              <text class="st6" transform="translate(62.8 251.4)"><tspan x="0" y="0">Singer</tspan></text>
            </g>
            <g>
              <path class="st11" d="M405,220.2c-1.1-1.5-2.8-2.4-4.7-2.6-2.1-.3-4.4.4-6.1,1.7,0,0-.5.4-.9.8-1.7-1.7-4-2.6-6.3-2.6-2.1,0-3.9.9-5.1,2.5-1.6,2.1-2.2,5.4-1.5,8.4.6,2.6,2,5,4.2,7,1.1,1.1,2.5,2.1,4,3l.4.2c1.1.7,2.6,1.5,4.3,1.5s.3,0,.5,0c.5,0,1-.2,1.4-.4.3-.1.7-.3,1-.4,4.2-2,7.6-5.1,9.2-8.6.9-1.9,1.3-3.9,1.1-6-.1-1.8-.6-3.4-1.6-4.6ZM402.3,229.3c-1.3,2.8-4.1,5.3-7.6,7-.3.1-.6.2-.9.4,0,0-.3.2-.5.2-.7,0-1.9-.6-2.6-1.1l-.4-.2c-1.3-.8-2.4-1.6-3.4-2.5-1.7-1.6-2.8-3.4-3.2-5.4-.5-2-.1-4.2.9-5.5.6-.8,1.4-1.2,2.5-1.2h0c1.5,0,3.1.8,4.2,2.1.4.5,1.1.9,1.8.9.7,0,1.4-.3,1.8-.8.5-.5,1.2-1.1,1.3-1.2,1-.8,2.3-1.1,3.5-1,.7,0,1.7.4,2.4,1.3.5.6.8,1.6.9,2.7,0,.2,0,.4,0,.5,0,1.3-.3,2.5-.9,3.7Z"/>
              <g>
                <path class="st11" d="M420.3,218.1c0,1.3-1,2.3-2.3,2.3s-2.3-1-2.3-2.3,1-2.3,2.3-2.3,2.3,1,2.3,2.3Z"/>
                <path class="st11" d="M420.3,228.9c0,1.3-1,2.3-2.3,2.3s-2.3-1-2.3-2.3,1-2.3,2.3-2.3,2.3,1,2.3,2.3Z"/>
                <path class="st11" d="M420.3,239.6c0,1.3-1,2.3-2.3,2.3s-2.3-1-2.3-2.3,1-2.3,2.3-2.3,2.3,1,2.3,2.3Z"/>
              </g>
              <g class="st16">
                <path class="st15" d="M395.2,228.9c0,5.8-4.7,10.6-10.6,10.6s-10.6-4.7-10.6-10.6,4.7-10.6,10.6-10.6,10.6,4.7,10.6,10.6Z"/>
                <line class="st15" x1="375.5" y1="223.1" x2="392.8" y2="234.5"/>
              </g>
            </g>
          </g>
        </g>
        <g>
          <rect class="st7" x="13.7" y="375.6" width="455.8" height="94.6"/>
          <g>
            <g class="st16">
              <text class="st10" transform="translate(62.8 419.8)"><tspan x="0" y="0">Song Title</tspan></text>
              <text class="st5" transform="translate(62.8 445.4)"><tspan x="0" y="0">Singer</tspan></text>
            </g>
            <g>
              <path class="st11" d="M405,414.3c-1.1-1.5-2.8-2.4-4.7-2.7-2.1-.2-4.4.4-6.1,1.7,0,0-.5.4-.9.8-1.7-1.7-4-2.6-6.3-2.6-2.1,0-3.9.9-5.1,2.6-1.6,2.1-2.2,5.4-1.5,8.4.6,2.6,2,5,4.2,7.1,1.1,1.1,2.5,2.1,4,3l.4.2c1.1.7,2.6,1.5,4.3,1.5s.3,0,.5,0c.5,0,1-.2,1.4-.4.3-.2.7-.3,1-.5,4.2-2,7.6-5.1,9.2-8.6.9-1.9,1.3-3.9,1.1-6-.1-1.9-.6-3.4-1.6-4.6ZM402.3,423.3c-1.3,2.8-4.1,5.3-7.6,7-.3.2-.6.3-.9.4,0,0-.3.1-.5.2-.7,0-1.9-.6-2.6-1.1l-.4-.2c-1.3-.7-2.4-1.6-3.4-2.5-1.7-1.6-2.8-3.4-3.2-5.3-.5-2-.1-4.3.9-5.6.6-.8,1.4-1.2,2.5-1.2h0c1.5,0,3.1.8,4.2,2.1.4.6,1.1.9,1.8.9.7,0,1.4-.2,1.8-.8s1.2-1.1,1.3-1.2c1-.8,2.3-1.1,3.5-1,.7,0,1.7.4,2.4,1.3.5.7.8,1.6.9,2.7,0,.2,0,.4,0,.5,0,1.3-.3,2.6-.9,3.8Z"/>
              <g>
                <path class="st11" d="M420.3,412.1c0,1.3-1,2.3-2.3,2.3s-2.3-1-2.3-2.3,1-2.3,2.3-2.3,2.3,1,2.3,2.3Z"/>
                <path class="st11" d="M420.3,422.9c0,1.3-1,2.3-2.3,2.3s-2.3-1-2.3-2.3,1-2.3,2.3-2.3,2.3,1,2.3,2.3Z"/>
                <path class="st11" d="M420.3,433.7c0,1.3-1,2.3-2.3,2.3s-2.3-1-2.3-2.3,1-2.3,2.3-2.3,2.3,1,2.3,2.3Z"/>
              </g>
              <g class="st16">
                <path class="st15" d="M395.2,422.9c0,5.8-4.7,10.6-10.6,10.6s-10.6-4.7-10.6-10.6,4.7-10.6,10.6-10.6,10.6,4.7,10.6,10.6Z"/>
                <line class="st15" x1="375.5" y1="417.1" x2="392.8" y2="428.5"/>
              </g>
            </g>
          </g>
        </g>
        <g>
          <path class="st9" d="M95.2,805.1c-1.4-1.8-3.5-3-5.8-3.3-2.6-.3-5.5.5-7.5,2.1-.1,0-.6.5-1.1,1-2.1-2-5-3.3-7.7-3.2-2.6,0-4.8,1.1-6.3,3.1-2,2.6-2.7,6.7-1.9,10.4.7,3.2,2.5,6.2,5.1,8.7,1.4,1.4,3.1,2.6,5,3.7l.5.3c1.4.8,3.3,1.9,5.3,1.9s.4,0,.6,0c.7,0,1.2-.3,1.7-.5l1.3-.5c5.2-2.4,9.4-6.3,11.4-10.6,1.1-2.4,1.6-4.8,1.4-7.4-.2-2.3-.8-4.2-1.9-5.7ZM91.9,816.4c-1.6,3.4-5,6.5-9.4,8.6l-1.1.5c-.1,0-.4.2-.5.2-.8,0-2.3-.8-3.3-1.3l-.5-.3c-1.6-.9-3-1.9-4.2-3-2-2-3.4-4.2-4-6.6-.6-2.5-.2-5.2,1.1-6.8.8-1,1.8-1.5,3.1-1.5h.1c1.9,0,3.9,1,5.1,2.6.5.7,1.4,1.1,2.2,1.1.8,0,1.7-.3,2.3-1,.5-.6,1.4-1.4,1.6-1.5,1.2-.9,2.8-1.4,4.4-1.2.9,0,2.1.5,3,1.6.6.8,1,2,1.1,3.4,0,.2,0,.5,0,.7,0,1.6-.4,3.1-1.1,4.6Z"/>
          <polygon class="st9" points="418.6 815.8 393.1 801 393.1 830.5 418.6 815.8 393.1 801 393.1 830.5 418.6 815.8"/>
        </g>
        <g>
          <g class="st16">
            <g>
              <text class="st3" transform="translate(62 323.6)"><tspan x="0" y="0">Song Title</tspan></text>
              <text class="st1" transform="translate(62 349.2)"><tspan x="0" y="0">Singer</tspan></text>
            </g>
          </g>
          <g>
            <path class="st0" d="M406.7,322.7c-.1-1.8-.6-3.4-1.5-4.6-1.1-1.5-2.8-2.4-4.8-2.6-2.1-.3-4.4.4-6.1,1.7-.1,0-.5.4-.9.8-1.7-1.7-4-2.6-6.3-2.6-2.1,0-3.9.9-5.1,2.6-1.6,2.1-2.2,5.4-1.5,8.4.6,2.6,2,5,4.2,7,1.1,1.1,2.5,2.1,4.1,3l.4.2c1.1.7,2.6,1.5,4.2,1.5s.3,0,.5,0c.5,0,1-.2,1.3-.4s.7-.3,1-.5c4.2-2,7.6-5.1,9.2-8.6.9-1.9,1.3-3.9,1.1-6ZM402.4,327.2c-1.3,2.8-4,5.3-7.6,7-.3.1-.6.2-.9.4,0,0-.3.2-.4.2-.7,0-1.9-.6-2.7-1.1l-.4-.2c-1.3-.8-2.4-1.6-3.4-2.5-1.7-1.6-2.8-3.4-3.2-5.4-.5-2-.1-4.3.9-5.5.6-.8,1.4-1.2,2.5-1.2h0c1.5,0,3.2.8,4.2,2.1.5.6,1.1.9,1.8.9.7,0,1.4-.3,1.8-.8.4-.5,1.1-1.1,1.3-1.2,1-.8,2.3-1.1,3.6-1,.7,0,1.7.4,2.4,1.4.5.6.8,1.6.9,2.7,0,1.4-.2,2.9-.8,4.3Z"/>
            <path class="st0" d="M417.2,318.3c1.3,0,2.3-1,2.3-2.3s-1-2.3-2.3-2.3-2.3,1-2.3,2.3,1,2.3,2.3,2.3Z"/>
            <path class="st0" d="M417.2,324.4c-1.3,0-2.3,1-2.3,2.3s1,2.3,2.3,2.3,2.3-1,2.3-2.3-1-2.3-2.3-2.3Z"/>
            <path class="st0" d="M417.2,335.2c-1.3,0-2.3,1-2.3,2.3s1,2.3,2.3,2.3,2.3-1,2.3-2.3-1-2.3-2.3-2.3Z"/>
            <path class="st2" d="M383.9,314.6c-6.7,0-12.1,5.4-12.1,12.1s5.4,12.1,12.1,12.1,12.1-5.4,12.1-12.1-5.4-12.1-12.1-12.1ZM383.9,335.8c-5,0-9.1-4.1-9.1-9.1s.2-2.4.7-3.4l14.8,9.8c-1.6,1.7-3.9,2.7-6.4,2.7ZM392,330.6l-14.9-9.8c1.7-1.9,4.1-3.1,6.8-3.1,5,0,9.1,4.1,9.1,9.1s-.3,2.7-.9,3.9Z"/>
          </g>
        </g>
        <g>
          <rect class="st7" x="13.7" y="572.4" width="455.8" height="94.6"/>
          <g>
            <g class="st16">
              <text class="st10" transform="translate(65.9 616.6)"><tspan x="0" y="0">Song Title</tspan></text>
              <text class="st5" transform="translate(65.9 642.2)"><tspan x="0" y="0">Singer</tspan></text>
            </g>
            <g>
              <path class="st11" d="M405.1,611.1c-1.1-1.5-2.8-2.4-4.8-2.6-2.1-.3-4.4.4-6.1,1.7,0,0-.5.4-.9.8-1.7-1.7-4-2.6-6.3-2.6-2.1,0-3.9.9-5.1,2.6-1.6,2.1-2.2,5.4-1.5,8.4.6,2.6,2,5,4.2,7.1,1.1,1.1,2.5,2.1,4,3l.4.2c1.1.6,2.7,1.5,4.3,1.5s.3,0,.5,0c.5,0,1-.2,1.4-.4s.7-.3,1-.5c4.2-2,7.6-5.1,9.2-8.6.9-1.9,1.3-3.9,1.1-6-.1-1.8-.6-3.4-1.5-4.6ZM402.3,620.2c-1.3,2.8-4.1,5.3-7.6,7-.3.2-.6.3-.9.4,0,0-.3.1-.5.2-.7,0-1.9-.6-2.6-1.1l-.4-.2c-1.3-.7-2.4-1.6-3.4-2.4-1.7-1.6-2.8-3.4-3.2-5.4-.5-2,0-4.3.9-5.6.6-.8,1.4-1.2,2.5-1.2h0c1.5,0,3.1.8,4.2,2.1.4.6,1.1.9,1.8.9.7,0,1.4-.3,1.8-.8.4-.5,1.1-1.1,1.3-1.2,1-.8,2.3-1.1,3.5-1,.7,0,1.7.4,2.4,1.4.5.6.8,1.6.9,2.7,0,.2,0,.4,0,.5,0,1.3-.3,2.6-.9,3.8Z"/>
              <g>
                <path class="st11" d="M423.4,608.9c0,1.3-1,2.3-2.3,2.3s-2.3-1-2.3-2.3,1-2.3,2.3-2.3,2.3,1,2.3,2.3Z"/>
                <path class="st11" d="M423.4,619.7c0,1.3-1,2.3-2.3,2.3s-2.3-1-2.3-2.3,1-2.3,2.3-2.3,2.3,1,2.3,2.3Z"/>
                <path class="st11" d="M423.4,630.5c0,1.3-1,2.3-2.3,2.3s-2.3-1-2.3-2.3,1-2.3,2.3-2.3,2.3,1,2.3,2.3Z"/>
              </g>
              <g class="st16">
                <path class="st15" d="M398.3,619.7c0,5.8-4.7,10.6-10.6,10.6s-10.6-4.7-10.6-10.6,4.7-10.6,10.6-10.6,10.6,4.7,10.6,10.6Z"/>
                <line class="st15" x1="378.6" y1="614" x2="395.8" y2="625.3"/>
              </g>
            </g>
          </g>
        </g>
        <g>
          <g class="st16">
            <g>
              <text class="st3" transform="translate(65.1 520.4)"><tspan x="0" y="0">Song Title</tspan></text>
              <text class="st1" transform="translate(65.1 546.1)"><tspan x="0" y="0">Singer</tspan></text>
            </g>
          </g>
          <g>
            <path class="st0" d="M406.7,519.5c-.1-1.8-.6-3.4-1.5-4.6-1.1-1.5-2.8-2.4-4.8-2.6-2.1-.3-4.4.4-6.1,1.7-.1,0-.5.4-.9.8-1.7-1.7-4-2.6-6.3-2.6-2.1,0-3.9.9-5.1,2.5-1.6,2.1-2.2,5.4-1.5,8.4.6,2.6,2,5,4.2,7,1.1,1.1,2.5,2.1,4.1,3l.4.2c1.1.7,2.6,1.5,4.2,1.5s.3,0,.5,0c.5,0,1-.2,1.4-.4.3-.1.7-.3,1-.4,4.2-2,7.6-5.1,9.2-8.6.9-1.9,1.3-3.9,1.1-6ZM402.5,524c-1.3,2.8-4.1,5.3-7.6,7-.3.1-.6.2-.8.4-.1,0-.4.2-.5.2-.7,0-1.9-.6-2.7-1.1l-.4-.2c-1.3-.8-2.4-1.6-3.4-2.5-1.7-1.6-2.8-3.4-3.2-5.4-.5-2-.1-4.2.9-5.5.6-.8,1.4-1.2,2.5-1.2h.1c1.5,0,3.1.8,4.2,2.1.5.5,1.1.9,1.8.9s1.4-.3,1.8-.8c.5-.5,1.1-1.1,1.3-1.2,1-.8,2.3-1.1,3.6-1,.7,0,1.7.4,2.4,1.3.5.6.8,1.6.8,2.7,0,1.4-.2,2.9-.8,4.3Z"/>
            <path class="st0" d="M420.2,515.1c1.3,0,2.3-1,2.3-2.3s-1-2.3-2.3-2.3-2.3,1-2.3,2.3,1,2.3,2.3,2.3Z"/>
            <path class="st0" d="M420.2,521.2c-1.3,0-2.3,1-2.3,2.3s1,2.3,2.3,2.3,2.3-1,2.3-2.3-1-2.3-2.3-2.3Z"/>
            <path class="st0" d="M420.2,532c-1.3,0-2.3,1-2.3,2.3s1,2.3,2.3,2.3,2.3-1,2.3-2.3-1-2.3-2.3-2.3Z"/>
            <path class="st2" d="M386.9,511.5c-6.7,0-12.1,5.4-12.1,12.1s5.4,12.1,12.1,12.1,12.1-5.4,12.1-12.1-5.4-12.1-12.1-12.1ZM386.9,532.6c-5,0-9.1-4.1-9.1-9.1s.2-2.4.7-3.4l14.9,9.8c-1.7,1.7-3.9,2.7-6.5,2.7ZM395.1,527.4l-14.9-9.8c1.7-1.9,4.1-3.1,6.8-3.1,5,0,9.1,4.1,9.1,9.1s-.3,2.7-.9,3.9Z"/>
          </g>
        </g>
        <g>
          <g class="st16">
            <g>
              <text class="st3" transform="translate(68.1 715.1)"><tspan x="0" y="0">Song Title</tspan></text>
              <text class="st1" transform="translate(68.1 740.8)"><tspan x="0" y="0">Singer</tspan></text>
            </g>
          </g>
          <g>
            <path class="st0" d="M406.8,714.2c-.1-1.8-.6-3.4-1.5-4.6-1.1-1.5-2.8-2.4-4.7-2.6s-4.4.4-6.1,1.7c-.1,0-.5.4-.9.8-1.7-1.7-4-2.6-6.3-2.6-2.1,0-3.9.9-5.1,2.5-1.6,2.1-2.2,5.4-1.5,8.4.6,2.6,2,5,4.2,7,1.1,1.1,2.5,2.1,4.1,3l.4.2c1.1.7,2.6,1.5,4.3,1.5s.3,0,.5,0c.5,0,1-.2,1.4-.4.3-.1.7-.3,1-.4,4.2-2,7.6-5.1,9.3-8.6.9-1.9,1.3-3.9,1.1-6ZM402.6,718.7c-1.3,2.8-4.1,5.3-7.6,7-.3.1-.6.2-.8.4-.1,0-.4.2-.5.2-.7,0-1.9-.6-2.6-1.1l-.4-.2c-1.3-.8-2.4-1.6-3.4-2.5-1.7-1.6-2.8-3.4-3.2-5.4-.5-2-.1-4.2.9-5.5.6-.8,1.4-1.2,2.5-1.2h.1c1.5,0,3.1.8,4.2,2.1.5.5,1.1.9,1.8.9s1.4-.3,1.8-.8c.5-.5,1.2-1.1,1.3-1.2,1-.8,2.3-1.1,3.5-1,.7,0,1.7.4,2.4,1.3.5.6.8,1.6.8,2.7,0,1.4-.2,2.9-.8,4.3Z"/>
            <circle class="st0" cx="423.3" cy="707.5" r="2.3"/>
            <path class="st0" d="M423.3,715.9c-1.3,0-2.3,1-2.3,2.3s1,2.3,2.3,2.3,2.3-1,2.3-2.3-1-2.3-2.3-2.3Z"/>
            <path class="st0" d="M423.3,726.7c-1.3,0-2.3,1-2.3,2.3s1,2.3,2.3,2.3,2.3-1,2.3-2.3-1-2.3-2.3-2.3Z"/>
            <path class="st2" d="M390,706.2c-6.7,0-12.1,5.4-12.1,12.1s5.4,12.1,12.1,12.1,12.1-5.4,12.1-12.1-5.4-12.1-12.1-12.1ZM390,727.3c-5,0-9.1-4.1-9.1-9.1s.2-2.4.7-3.4l14.8,9.8c-1.7,1.7-3.9,2.7-6.5,2.7ZM398.2,722.1l-14.9-9.8c1.7-1.9,4.1-3.1,6.8-3.1,5,0,9.1,4.1,9.1,9.1s-.3,2.7-.9,3.9Z"/>
          </g>
        </g>
        <rect class="st20" x="13.7" y="116" width="455.8" height="66.9"/>
        <path class="st7" d="M469.5,116v66.9h-119.9c-3.2,0-6.3-.5-9.2-1.3-11.4-3.3-20.4-12.5-23.2-24.1-.7-2.6-1-5.3-1-8.1,0-9.2,3.7-17.6,9.8-23.7s14.4-9.8,23.6-9.8h119.9Z"/>
        <g>
          <text class="st4" transform="translate(48.3 155.5)"><tspan x="0" y="0">Playlist 1</tspan></text>
          <text class="st4" transform="translate(193.9 155.5)"><tspan x="0" y="0">Playlist 2</tspan></text>
          <text class="st4" transform="translate(341.5 155.5)"><tspan x="0" y="0">Playlist 3</tspan></text>
        </g>
      </g>
    </g>
  </g>
</svg>